<svg width="342" height="187" viewBox="0 0 342 187" fill="none" xmlns="http://www.w3.org/2000/svg">
<path d="M45.9898 97.4675H35.0447C34.6599 97.4675 34.2908 97.6204 34.0186 97.8926C33.7465 98.1648 33.5936 98.5339 33.5936 98.9188V103.723C33.5936 104.108 33.7465 104.478 34.0186 104.75C34.2908 105.022 34.6599 105.175 35.0447 105.175H36.8585V112.374H44.1761V105.175H45.9898C46.3747 105.175 46.7438 105.022 47.0159 104.75C47.288 104.478 47.4409 104.108 47.4409 103.723V98.9188C47.4409 98.5339 47.288 98.1648 47.0159 97.8926C46.7438 97.6204 46.3747 97.4675 45.9898 97.4675Z" fill="#FF3008"/>
<path d="M56.9525 141.44C50.2494 131.63 46.8226 119.951 47.1631 108.074C47.1692 107.8 47.0803 107.532 46.9114 107.316C46.7425 107.1 46.5042 106.95 46.2368 106.89V104.813H34.6773V106.861H34.518C34.355 106.861 34.1937 106.895 34.0444 106.96C33.895 107.025 33.7607 107.121 33.6498 107.24C33.539 107.36 33.4539 107.501 33.4001 107.655C33.3462 107.809 33.3246 107.972 33.3367 108.135C34.2474 120.831 31.1723 132.216 24.1113 142.291C23.705 142.87 23.4974 143.565 23.5198 144.272L24.7837 183.375C24.8141 184.247 25.1801 185.074 25.8054 185.683C26.4306 186.292 27.2668 186.635 28.1394 186.642H54.2852C55.1677 186.635 56.0126 186.283 56.6398 185.662C57.267 185.041 57.6269 184.2 57.6429 183.318L58.13 145.352C58.1444 143.959 57.7336 142.594 56.9525 141.44V141.44Z" fill="#3F3D56"/>
<path opacity="0.2" d="M43.7082 99.0331C43.7082 99.8635 43.3783 100.66 42.7912 101.247C42.2041 101.834 41.4078 102.164 40.5775 102.164C39.7472 102.164 38.9509 101.834 38.3637 101.247C37.7766 100.66 37.4468 99.8635 37.4468 99.0331" fill="black"/>
<path d="M52.8136 154.429H49.6475C49.3452 152.467 48.351 150.678 46.8446 149.386C45.3383 148.094 43.4193 147.384 41.4347 147.384C39.4502 147.384 37.5312 148.094 36.0248 149.386C34.5184 150.678 33.5242 152.467 33.2219 154.429H30.0557C29.7188 154.429 29.3859 154.501 29.0798 154.642C28.7737 154.783 28.5017 154.988 28.2824 155.244C28.063 155.499 27.9015 155.8 27.809 156.124C27.7165 156.447 27.6951 156.788 27.7463 157.121L31.1854 179.477H50.9328L55.11 157.196C55.1733 156.858 55.1614 156.511 55.0753 156.179C54.9891 155.846 54.8308 155.537 54.6115 155.273C54.3923 155.009 54.1175 154.796 53.8067 154.65C53.496 154.504 53.1569 154.429 52.8136 154.429Z" fill="#FF3008"/>
<path d="M318.873 118.494L318.114 148.851L317.173 186.496H285.159L284.057 142.391L283.459 118.494H318.873Z" fill="#E6E6E6"/>
<path d="M303.291 102.344H298.758V162.412H303.291V102.344Z" fill="#FF3008"/>
<path d="M316.607 141.368L315.749 184.516H286.569L285.564 133.964C288.193 133.225 290.946 133.036 293.652 133.408C296.357 133.78 298.956 134.706 301.288 136.127C306.164 139.01 311.641 140.563 316.607 141.368Z" fill="#3F3D56"/>
<path d="M293.793 146.225H289.633V150.385H293.793V146.225Z" fill="#E6E6E6"/>
<path d="M296.626 137.725H292.467V141.885H296.626V137.725Z" fill="#E6E6E6"/>
<path d="M305.558 143.61L302.217 141.132L299.739 144.473L303.08 146.951L305.558 143.61Z" fill="#E6E6E6"/>
<path d="M313.073 150.98L309.732 148.502L307.254 151.844L310.595 154.322L313.073 150.98Z" fill="#E6E6E6"/>
<path d="M300.324 155.231L296.983 152.753L294.505 156.094L297.846 158.572L300.324 155.231Z" fill="#E6E6E6"/>
<path d="M310.091 136.061C310.56 136.061 310.941 135.681 310.941 135.211C310.941 134.742 310.56 134.361 310.091 134.361C309.621 134.361 309.241 134.742 309.241 135.211C309.241 135.681 309.621 136.061 310.091 136.061Z" fill="#3F3D56"/>
<path d="M292.809 130.394C293.278 130.394 293.659 130.014 293.659 129.544C293.659 129.075 293.278 128.694 292.809 128.694C292.339 128.694 291.959 129.075 291.959 129.544C291.959 130.014 292.339 130.394 292.809 130.394Z" fill="#3F3D56"/>
<path d="M307.258 124.444C307.727 124.444 308.107 124.064 308.107 123.594C308.107 123.125 307.727 122.744 307.258 122.744C306.788 122.744 306.408 123.125 306.408 123.594C306.408 124.064 306.788 124.444 307.258 124.444Z" fill="#3F3D56"/>
<path d="M171.196 186.237C222.618 186.237 264.304 144.546 264.304 93.1185C264.304 41.6906 222.618 0 171.196 0C119.774 0 78.0877 41.6906 78.0877 93.1185C78.0877 144.546 119.774 186.237 171.196 186.237Z" fill="#FF3008"/>
<path opacity="0.2" d="M171.196 161.086C155.473 161.086 140.237 155.634 128.083 145.658C115.929 135.682 107.61 121.801 104.542 106.378C101.475 90.9559 103.85 74.947 111.261 61.0792C118.673 47.2115 130.663 36.3429 145.189 30.3255C159.715 24.308 175.878 23.5139 190.924 28.0786C205.97 32.6432 218.967 42.2841 227.702 55.3586C236.437 68.433 240.369 84.1321 238.828 99.7809C237.287 115.43 230.368 130.06 219.251 141.179C212.955 147.51 205.466 152.529 197.217 155.946C188.968 159.363 180.124 161.11 171.196 161.086V161.086ZM171.196 29.3428C136.034 29.3428 107.427 57.9524 107.427 93.1185C107.427 128.284 136.034 156.894 171.196 156.894C206.358 156.894 234.964 128.284 234.964 93.1185C234.964 57.9524 206.358 29.3428 171.196 29.3428Z" fill="black"/>
<path d="M171.196 158.99C207.571 158.99 237.06 129.498 237.06 93.1184C237.06 56.7385 207.571 27.2468 171.196 27.2468C134.82 27.2468 105.332 56.7385 105.332 93.1184C105.332 129.498 134.82 158.99 171.196 158.99Z" fill="#3F3D56"/>
<path d="M122.214 66.7792C121.714 65.8008 121.413 64.7335 121.326 63.6384C121.239 62.5432 121.369 61.4417 121.708 60.3968C122.047 59.3518 122.589 58.384 123.302 57.5486C124.016 56.7132 124.887 56.0267 125.865 55.5281C126.844 55.0296 127.912 54.7289 129.007 54.6433C130.102 54.5576 131.203 54.6886 132.248 55.0289C133.292 55.3692 134.259 55.912 135.094 56.6263C135.928 57.3406 136.614 58.2124 137.111 59.1919L155.72 95.737C156.219 96.7154 156.521 97.7827 156.608 98.8779C156.695 99.973 156.565 101.075 156.226 102.119C155.887 103.164 155.345 104.132 154.631 104.968C153.918 105.803 153.047 106.49 152.068 106.988C151.089 107.487 150.022 107.787 148.927 107.873C147.832 107.959 146.73 107.828 145.686 107.487C144.642 107.147 143.674 106.604 142.84 105.89C142.005 105.176 141.32 104.304 140.822 103.324L122.214 66.7792Z" fill="#FF6584"/>
<path opacity="0.2" d="M124.289 70.8553L123.431 69.1686C127.717 65.8378 132.75 63.3882 138.328 61.5813L139.187 63.268C133.15 64.5253 128.014 66.8522 124.289 70.8553Z" fill="black"/>
<path opacity="0.2" d="M128.297 78.7267L127.439 77.04C131.725 73.7092 136.758 71.2596 142.336 69.4526L143.195 71.1393C137.158 72.3967 132.022 74.7235 128.297 78.7267Z" fill="black"/>
<path opacity="0.2" d="M132.305 86.5979L131.447 84.9112C135.733 81.5804 140.766 79.1308 146.344 77.3239L147.203 79.0105C141.166 80.2679 136.029 82.5947 132.305 86.5979Z" fill="black"/>
<path opacity="0.2" d="M136.313 94.4691L135.454 92.7824C139.741 89.4516 144.774 87.002 150.352 85.1951L151.211 86.8818C145.174 88.1391 140.037 90.4659 136.313 94.4691Z" fill="black"/>
<path opacity="0.2" d="M140.321 102.34L139.462 100.654C143.749 97.3229 148.782 94.8733 154.36 93.0664L155.219 94.7531C149.182 96.0104 144.045 98.3373 140.321 102.34Z" fill="black"/>
<path d="M108.253 80.4603C107.754 79.4819 107.452 78.4147 107.366 77.3196C107.279 76.2245 107.409 75.1231 107.748 74.0782C108.087 73.0334 108.629 72.0657 109.342 71.2304C110.056 70.395 110.927 69.7085 111.905 69.21C112.884 68.7115 113.952 68.4108 115.047 68.3252C116.142 68.2395 117.243 68.3705 118.287 68.7106C119.332 69.0508 120.299 69.5935 121.133 70.3077C121.968 71.0219 122.653 71.8936 123.151 72.873L141.759 109.418C142.762 111.394 142.941 113.687 142.254 115.793C141.568 117.9 140.074 119.648 138.1 120.654C136.126 121.659 133.833 121.84 131.726 121.155C129.619 120.471 127.869 118.979 126.862 117.005L108.253 80.4603Z" fill="#FF6584"/>
<path opacity="0.2" d="M110.329 84.5365L109.47 82.8498C113.756 79.519 118.79 77.0694 124.368 75.2625L125.226 76.9491C119.189 78.2065 114.053 80.5333 110.329 84.5365Z" fill="black"/>
<path opacity="0.2" d="M114.337 92.4078L113.478 90.7211C117.764 87.3903 122.797 84.9407 128.376 83.1338L129.234 84.8205C123.197 86.0778 118.061 88.4046 114.337 92.4078Z" fill="black"/>
<path opacity="0.2" d="M118.345 100.279L117.486 98.5923C121.772 95.2616 126.805 92.812 132.383 91.005L133.242 92.6917C127.205 93.949 122.069 96.2759 118.345 100.279Z" fill="black"/>
<path opacity="0.2" d="M122.353 108.15L121.494 106.464C125.78 103.133 130.813 100.683 136.391 98.8762L137.25 100.563C131.213 101.82 126.077 104.147 122.353 108.15Z" fill="black"/>
<path opacity="0.2" d="M126.361 116.022L125.502 114.335C129.788 111.004 134.821 108.555 140.399 106.748L141.258 108.434C135.221 109.692 130.085 112.018 126.361 116.022Z" fill="black"/>
<path d="M215.205 95.2144L215.264 95.2144C217.268 95.2313 219.231 94.6435 220.896 93.5279C222.561 92.4124 223.852 90.8207 224.599 88.9606C226.136 85.0755 226.91 80.9308 226.88 76.7528C226.776 59.0689 212.391 44.5614 194.71 44.3168C187.18 44.2114 179.846 46.7133 173.95 51.3984C168.054 56.0835 163.959 62.6635 162.36 70.023C160.761 77.3825 161.755 85.0687 165.175 91.7787C168.595 98.4886 174.229 103.809 181.124 106.839C182.946 107.646 184.969 107.883 186.928 107.52C188.887 107.156 190.691 106.209 192.102 104.803C195.13 101.759 198.73 99.3448 202.695 97.6991C206.66 96.0533 210.912 95.2089 215.205 95.2144Z" fill="#E6E6E6"/>
<path d="M198.44 85.3336C204.392 85.3336 209.217 80.5077 209.217 74.5546C209.217 68.6016 204.392 63.7756 198.44 63.7756C192.487 63.7756 187.662 68.6016 187.662 74.5546C187.662 80.5077 192.487 85.3336 198.44 85.3336Z" fill="#F9A825"/>
<path d="M175.016 73.3426C175.717 73.3426 176.285 72.7741 176.285 72.0728C176.285 71.3715 175.717 70.803 175.016 70.803C174.314 70.803 173.746 71.3715 173.746 72.0728C173.746 72.7741 174.314 73.3426 175.016 73.3426Z" fill="#3F3D56"/>
<path d="M133.102 74.5402C133.803 74.5402 134.372 73.9717 134.372 73.2704C134.372 72.5691 133.803 72.0006 133.102 72.0006C132.401 72.0006 131.832 72.5691 131.832 73.2704C131.832 73.9717 132.401 74.5402 133.102 74.5402Z" fill="#3F3D56"/>
<path d="M181.782 60.1827C182.483 60.1827 183.052 59.6142 183.052 58.9129C183.052 58.2116 182.483 57.6431 181.782 57.6431C181.081 57.6431 180.513 58.2116 180.513 58.9129C180.513 59.6142 181.081 60.1827 181.782 60.1827Z" fill="#3F3D56"/>
<path d="M181.746 96.7836C182.447 96.7836 183.016 96.2151 183.016 95.5138C183.016 94.8125 182.447 94.244 181.746 94.244C181.045 94.244 180.477 94.8125 180.477 95.5138C180.477 96.2151 181.045 96.7836 181.746 96.7836Z" fill="#3F3D56"/>
<path d="M206.894 57.5601C207.596 57.5601 208.164 56.9916 208.164 56.2903C208.164 55.589 207.596 55.0205 206.894 55.0205C206.193 55.0205 205.625 55.589 205.625 56.2903C205.625 56.9916 206.193 57.5601 206.894 57.5601Z" fill="#3F3D56"/>
<path d="M124.864 92.2924C125.565 92.2924 126.133 91.7239 126.133 91.0226C126.133 90.3213 125.565 89.7528 124.864 89.7528C124.162 89.7528 123.594 90.3213 123.594 91.0226C123.594 91.7239 124.162 92.2924 124.864 92.2924Z" fill="#3F3D56"/>
<path d="M134.144 110.557C134.846 110.557 135.414 109.988 135.414 109.287C135.414 108.586 134.846 108.017 134.144 108.017C133.443 108.017 132.875 108.586 132.875 109.287C132.875 109.988 133.443 110.557 134.144 110.557Z" fill="#3F3D56"/>
<path d="M192.452 116.473C195.097 116.473 197.242 114.328 197.242 111.682C197.242 109.036 195.097 106.892 192.452 106.892C189.806 106.892 187.662 109.036 187.662 111.682C187.662 114.328 189.806 116.473 192.452 116.473Z" fill="#FF6584"/>
<path opacity="0.2" d="M196.044 111.982C196.044 112.935 195.666 113.849 194.992 114.522C194.318 115.196 193.405 115.575 192.452 115.575C191.499 115.575 190.585 115.196 189.911 114.522C189.238 113.849 188.859 112.935 188.859 111.982" fill="black"/>
<path opacity="0.2" d="M188.859 111.383C188.859 110.43 189.238 109.516 189.911 108.842C190.585 108.168 191.499 107.79 192.452 107.79C193.405 107.79 194.318 108.168 194.992 108.842C195.666 109.516 196.044 110.43 196.044 111.383" fill="black"/>
<path d="M190.656 110.485C190.821 110.485 190.955 110.284 190.955 110.036C190.955 109.788 190.821 109.586 190.656 109.586C190.49 109.586 190.356 109.788 190.356 110.036C190.356 110.284 190.49 110.485 190.656 110.485Z" fill="#FF6584"/>
<path d="M192.452 109.886C192.617 109.886 192.751 109.685 192.751 109.437C192.751 109.189 192.617 108.988 192.452 108.988C192.287 108.988 192.152 109.189 192.152 109.437C192.152 109.685 192.287 109.886 192.452 109.886Z" fill="#FF6584"/>
<path d="M192.452 113.778C192.617 113.778 192.751 113.577 192.751 113.329C192.751 113.081 192.617 112.88 192.452 112.88C192.287 112.88 192.152 113.081 192.152 113.329C192.152 113.577 192.287 113.778 192.452 113.778Z" fill="#FF6584"/>
<path d="M194.248 111.383C194.414 111.383 194.548 111.182 194.548 110.934C194.548 110.686 194.414 110.485 194.248 110.485C194.083 110.485 193.949 110.686 193.949 110.934C193.949 111.182 194.083 111.383 194.248 111.383Z" fill="#FF6584"/>
<path d="M193.949 114.676C194.114 114.676 194.248 114.475 194.248 114.227C194.248 113.979 194.114 113.778 193.949 113.778C193.783 113.778 193.649 113.979 193.649 114.227C193.649 114.475 193.783 114.676 193.949 114.676Z" fill="#FF6584"/>
<path d="M190.356 113.179C190.522 113.179 190.656 112.978 190.656 112.73C190.656 112.482 190.522 112.281 190.356 112.281C190.191 112.281 190.057 112.482 190.057 112.73C190.057 112.978 190.191 113.179 190.356 113.179Z" fill="#FF6584"/>
<path d="M202.032 103.598C204.678 103.598 206.822 101.453 206.822 98.8074C206.822 96.1616 204.678 94.0167 202.032 94.0167C199.387 94.0167 197.242 96.1616 197.242 98.8074C197.242 101.453 199.387 103.598 202.032 103.598Z" fill="#FF6584"/>
<path opacity="0.2" d="M205.625 99.1068C205.625 100.06 205.246 100.974 204.572 101.647C203.899 102.321 202.985 102.7 202.032 102.7C201.079 102.7 200.165 102.321 199.492 101.647C198.818 100.974 198.44 100.06 198.44 99.1068" fill="black"/>
<path opacity="0.2" d="M198.44 98.508C198.44 97.5551 198.818 96.6412 199.492 95.9674C200.165 95.2936 201.079 94.915 202.032 94.915C202.985 94.915 203.899 95.2936 204.572 95.9674C205.246 96.6412 205.625 97.5551 205.625 98.508" fill="black"/>
<path d="M200.236 97.6097C200.401 97.6097 200.535 97.4086 200.535 97.1606C200.535 96.9125 200.401 96.7114 200.236 96.7114C200.07 96.7114 199.936 96.9125 199.936 97.1606C199.936 97.4086 200.07 97.6097 200.236 97.6097Z" fill="#FF6584"/>
<path d="M202.032 97.0109C202.197 97.0109 202.331 96.8098 202.331 96.5618C202.331 96.3137 202.197 96.1127 202.032 96.1127C201.867 96.1127 201.733 96.3137 201.733 96.5618C201.733 96.8098 201.867 97.0109 202.032 97.0109Z" fill="#FF6584"/>
<path d="M202.032 100.903C202.197 100.903 202.331 100.702 202.331 100.454C202.331 100.206 202.197 100.005 202.032 100.005C201.867 100.005 201.733 100.206 201.733 100.454C201.733 100.702 201.867 100.903 202.032 100.903Z" fill="#FF6584"/>
<path d="M203.828 98.508C203.994 98.508 204.128 98.3069 204.128 98.0589C204.128 97.8108 203.994 97.6097 203.828 97.6097C203.663 97.6097 203.529 97.8108 203.529 98.0589C203.529 98.3069 203.663 98.508 203.828 98.508Z" fill="#FF6584"/>
<path d="M203.529 101.802C203.694 101.802 203.828 101.6 203.828 101.352C203.828 101.104 203.694 100.903 203.529 100.903C203.364 100.903 203.23 101.104 203.23 101.352C203.23 101.6 203.364 101.802 203.529 101.802Z" fill="#FF6584"/>
<path d="M199.936 100.305C200.102 100.305 200.236 100.103 200.236 99.8554C200.236 99.6073 200.102 99.4062 199.936 99.4062C199.771 99.4062 199.637 99.6073 199.637 99.8554C199.637 100.103 199.771 100.305 199.936 100.305Z" fill="#FF6584"/>
<path d="M211.612 110.185C214.258 110.185 216.402 108.04 216.402 105.395C216.402 102.749 214.258 100.604 211.612 100.604C208.967 100.604 206.822 102.749 206.822 105.395C206.822 108.04 208.967 110.185 211.612 110.185Z" fill="#FF3008"/>
<path opacity="0.2" d="M215.205 105.694C215.205 106.647 214.826 107.561 214.153 108.235C213.479 108.908 212.565 109.287 211.612 109.287C210.66 109.287 209.746 108.908 209.072 108.235C208.398 107.561 208.02 106.647 208.02 105.694" fill="black"/>
<path opacity="0.2" d="M208.02 105.095C208.02 104.142 208.398 103.228 209.072 102.555C209.746 101.881 210.66 101.502 211.612 101.502C212.565 101.502 213.479 101.881 214.153 102.555C214.826 103.228 215.205 104.142 215.205 105.095" fill="black"/>
<path d="M209.816 104.197C209.981 104.197 210.115 103.996 210.115 103.748C210.115 103.5 209.981 103.299 209.816 103.299C209.651 103.299 209.517 103.5 209.517 103.748C209.517 103.996 209.651 104.197 209.816 104.197Z" fill="#FF3008"/>
<path d="M211.612 103.598C211.778 103.598 211.912 103.397 211.912 103.149C211.912 102.901 211.778 102.7 211.612 102.7C211.447 102.7 211.313 102.901 211.313 103.149C211.313 103.397 211.447 103.598 211.612 103.598Z" fill="#FF3008"/>
<path d="M211.612 107.49C211.778 107.49 211.912 107.289 211.912 107.041C211.912 106.793 211.778 106.592 211.612 106.592C211.447 106.592 211.313 106.793 211.313 107.041C211.313 107.289 211.447 107.49 211.612 107.49Z" fill="#FF3008"/>
<path d="M213.409 105.095C213.574 105.095 213.708 104.894 213.708 104.646C213.708 104.398 213.574 104.197 213.409 104.197C213.243 104.197 213.109 104.398 213.109 104.646C213.109 104.894 213.243 105.095 213.409 105.095Z" fill="#FF3008"/>
<path d="M213.109 108.389C213.275 108.389 213.409 108.188 213.409 107.94C213.409 107.692 213.275 107.49 213.109 107.49C212.944 107.49 212.81 107.692 212.81 107.94C212.81 108.188 212.944 108.389 213.109 108.389Z" fill="#FF3008"/>
<path d="M209.517 106.892C209.682 106.892 209.816 106.691 209.816 106.443C209.816 106.194 209.682 105.993 209.517 105.993C209.351 105.993 209.217 106.194 209.217 106.443C209.217 106.691 209.351 106.892 209.517 106.892Z" fill="#FF3008"/>
<path d="M187.662 110.784C190.307 110.784 192.452 108.639 192.452 105.993C192.452 103.348 190.307 101.203 187.662 101.203C185.016 101.203 182.872 103.348 182.872 105.993C182.872 108.639 185.016 110.784 187.662 110.784Z" fill="#FF3008"/>
<path opacity="0.2" d="M191.254 106.293C191.254 107.246 190.876 108.16 190.202 108.833C189.528 109.507 188.615 109.886 187.662 109.886C186.709 109.886 185.795 109.507 185.121 108.833C184.448 108.16 184.069 107.246 184.069 106.293" fill="black"/>
<path opacity="0.2" d="M184.069 105.694C184.069 104.741 184.448 103.827 185.121 103.153C185.795 102.479 186.709 102.101 187.662 102.101C188.615 102.101 189.528 102.479 190.202 103.153C190.876 103.827 191.254 104.741 191.254 105.694" fill="black"/>
<path d="M185.865 104.796C186.031 104.796 186.165 104.595 186.165 104.347C186.165 104.099 186.031 103.897 185.865 103.897C185.7 103.897 185.566 104.099 185.566 104.347C185.566 104.595 185.7 104.796 185.865 104.796Z" fill="#FF3008"/>
<path d="M187.662 104.197C187.827 104.197 187.961 103.996 187.961 103.748C187.961 103.5 187.827 103.299 187.662 103.299C187.496 103.299 187.362 103.5 187.362 103.748C187.362 103.996 187.496 104.197 187.662 104.197Z" fill="#FF3008"/>
<path d="M187.662 108.089C187.827 108.089 187.961 107.888 187.961 107.64C187.961 107.392 187.827 107.191 187.662 107.191C187.496 107.191 187.362 107.392 187.362 107.64C187.362 107.888 187.496 108.089 187.662 108.089Z" fill="#FF3008"/>
<path d="M189.458 105.694C189.623 105.694 189.757 105.493 189.757 105.245C189.757 104.997 189.623 104.796 189.458 104.796C189.293 104.796 189.159 104.997 189.159 105.245C189.159 105.493 189.293 105.694 189.458 105.694Z" fill="#FF3008"/>
<path d="M189.159 108.988C189.324 108.988 189.458 108.787 189.458 108.538C189.458 108.29 189.324 108.089 189.159 108.089C188.993 108.089 188.859 108.29 188.859 108.538C188.859 108.787 188.993 108.988 189.159 108.988Z" fill="#FF3008"/>
<path d="M185.566 107.49C185.731 107.49 185.865 107.289 185.865 107.041C185.865 106.793 185.731 106.592 185.566 106.592C185.401 106.592 185.267 106.793 185.267 107.041C185.267 107.289 185.401 107.49 185.566 107.49Z" fill="#FF3008"/>
<path d="M198.439 112.88C201.085 112.88 203.23 110.735 203.23 108.089C203.23 105.444 201.085 103.299 198.439 103.299C195.794 103.299 193.649 105.444 193.649 108.089C193.649 110.735 195.794 112.88 198.439 112.88Z" fill="#FF3008"/>
<path opacity="0.2" d="M202.032 108.389C202.032 108.861 201.939 109.328 201.759 109.764C201.578 110.2 201.313 110.596 200.98 110.929C200.646 111.263 200.25 111.528 199.814 111.708C199.378 111.889 198.911 111.982 198.44 111.982C197.968 111.982 197.501 111.889 197.065 111.708C196.629 111.528 196.233 111.263 195.899 110.929C195.566 110.596 195.301 110.2 195.12 109.764C194.94 109.328 194.847 108.861 194.847 108.389" fill="black"/>
<path opacity="0.2" d="M194.847 107.79C194.847 107.318 194.94 106.851 195.12 106.415C195.301 105.979 195.566 105.583 195.899 105.249C196.233 104.916 196.629 104.651 197.065 104.47C197.501 104.29 197.968 104.197 198.44 104.197C198.911 104.197 199.378 104.29 199.814 104.47C200.25 104.651 200.646 104.916 200.98 105.249C201.313 105.583 201.578 105.979 201.759 106.415C201.939 106.851 202.032 107.318 202.032 107.79" fill="black"/>
<path d="M196.643 106.892C196.809 106.892 196.943 106.691 196.943 106.443C196.943 106.194 196.809 105.993 196.643 105.993C196.478 105.993 196.344 106.194 196.344 106.443C196.344 106.691 196.478 106.892 196.643 106.892Z" fill="#FF3008"/>
<path d="M198.44 106.293C198.605 106.293 198.739 106.092 198.739 105.844C198.739 105.596 198.605 105.395 198.44 105.395C198.274 105.395 198.14 105.596 198.14 105.844C198.14 106.092 198.274 106.293 198.44 106.293Z" fill="#FF3008"/>
<path d="M198.44 110.185C198.605 110.185 198.739 109.984 198.739 109.736C198.739 109.488 198.605 109.287 198.44 109.287C198.274 109.287 198.14 109.488 198.14 109.736C198.14 109.984 198.274 110.185 198.44 110.185Z" fill="#FF3008"/>
<path d="M200.236 107.79C200.401 107.79 200.535 107.589 200.535 107.341C200.535 107.093 200.401 106.892 200.236 106.892C200.07 106.892 199.936 107.093 199.936 107.341C199.936 107.589 200.07 107.79 200.236 107.79Z" fill="#FF3008"/>
<path d="M199.936 111.083C200.102 111.083 200.236 110.882 200.236 110.634C200.236 110.386 200.102 110.185 199.936 110.185C199.771 110.185 199.637 110.386 199.637 110.634C199.637 110.882 199.771 111.083 199.936 111.083Z" fill="#FF3008"/>
<path d="M196.344 109.586C196.509 109.586 196.643 109.385 196.643 109.137C196.643 108.889 196.509 108.688 196.344 108.688C196.178 108.688 196.044 108.889 196.044 109.137C196.044 109.385 196.178 109.586 196.344 109.586Z" fill="#FF3008"/>
<path d="M205.924 117.97C208.57 117.97 210.714 115.825 210.714 113.179C210.714 110.534 208.57 108.389 205.924 108.389C203.279 108.389 201.134 110.534 201.134 113.179C201.134 115.825 203.279 117.97 205.924 117.97Z" fill="#FF6584"/>
<path opacity="0.2" d="M209.517 113.479C209.517 114.432 209.138 115.346 208.464 116.019C207.791 116.693 206.877 117.072 205.924 117.072C204.971 117.072 204.057 116.693 203.384 116.019C202.71 115.346 202.331 114.432 202.331 113.479" fill="black"/>
<path opacity="0.2" d="M202.331 112.88C202.331 111.927 202.71 111.013 203.384 110.339C204.057 109.666 204.971 109.287 205.924 109.287C206.877 109.287 207.791 109.666 208.464 110.339C209.138 111.013 209.517 111.927 209.517 112.88" fill="black"/>
<path d="M204.128 111.982C204.293 111.982 204.427 111.781 204.427 111.533C204.427 111.285 204.293 111.083 204.128 111.083C203.962 111.083 203.828 111.285 203.828 111.533C203.828 111.781 203.962 111.982 204.128 111.982Z" fill="#FF6584"/>
<path d="M205.924 111.383C206.089 111.383 206.223 111.182 206.223 110.934C206.223 110.686 206.089 110.485 205.924 110.485C205.759 110.485 205.625 110.686 205.625 110.934C205.625 111.182 205.759 111.383 205.924 111.383Z" fill="#FF6584"/>
<path d="M205.924 115.275C206.089 115.275 206.223 115.074 206.223 114.826C206.223 114.578 206.089 114.377 205.924 114.377C205.759 114.377 205.625 114.578 205.625 114.826C205.625 115.074 205.759 115.275 205.924 115.275Z" fill="#FF6584"/>
<path d="M207.72 112.88C207.886 112.88 208.02 112.679 208.02 112.431C208.02 112.183 207.886 111.982 207.72 111.982C207.555 111.982 207.421 112.183 207.421 112.431C207.421 112.679 207.555 112.88 207.72 112.88Z" fill="#FF6584"/>
<path d="M207.421 116.174C207.586 116.174 207.72 115.972 207.72 115.724C207.72 115.476 207.586 115.275 207.421 115.275C207.256 115.275 207.122 115.476 207.122 115.724C207.122 115.972 207.256 116.174 207.421 116.174Z" fill="#FF6584"/>
<path d="M203.828 114.676C203.994 114.676 204.128 114.475 204.128 114.227C204.128 113.979 203.994 113.778 203.828 113.778C203.663 113.778 203.529 113.979 203.529 114.227C203.529 114.475 203.663 114.676 203.828 114.676Z" fill="#FF6584"/>
<path d="M144.323 96.1848C145.025 96.1848 145.593 95.6163 145.593 94.915C145.593 94.2137 145.025 93.6451 144.323 93.6451C143.622 93.6451 143.054 94.2137 143.054 94.915C143.054 95.6163 143.622 96.1848 144.323 96.1848Z" fill="#3F3D56"/>
<path d="M178.836 141.006L148.343 132.549L149.511 128.209L180.004 136.667L178.836 141.006Z" fill="#F9A825"/>
<path d="M174.365 139.556C163.923 141.555 153.197 141.555 142.754 139.556V135.058C153.22 136.792 163.9 136.792 174.365 135.058V139.556Z" fill="#F9A825"/>
<path d="M177.615 126.061C167.173 128.06 156.446 128.06 146.004 126.061V121.563C156.47 123.298 167.149 123.298 177.615 121.563V126.061Z" fill="#F9A825"/>
<path d="M188.546 131.459C178.104 133.458 167.377 133.458 156.935 131.459V126.961C167.401 128.696 178.08 128.696 188.546 126.961V131.459Z" fill="#F9A825"/>
<path d="M191.205 136.557C180.763 138.556 170.036 138.556 159.594 136.557V132.059C170.059 133.794 180.739 133.794 191.205 132.059V136.557Z" fill="#F9A825"/>
<path d="M200.475 143.219L169.288 148.458L168.564 144.02L199.751 138.781L200.475 143.219Z" fill="#F9A825"/>
<path d="M195.816 143.795C187.17 150.029 177.425 154.574 167.093 157.194L165.242 153.106C175.484 150.238 185.187 145.712 193.966 139.708L195.816 143.795Z" fill="#F9A825"/>
<path d="M193.218 130.156C184.571 136.389 174.826 140.935 164.495 143.554L162.644 139.467C172.886 136.599 182.589 132.073 191.368 126.069L193.218 130.156Z" fill="#F9A825"/>
<path d="M205.371 130.428C196.724 136.661 186.979 141.207 176.647 143.826L174.797 139.739C185.038 136.871 194.741 132.345 203.52 126.34L205.371 130.428Z" fill="#F9A825"/>
<path d="M209.884 133.933C201.237 140.167 191.492 144.712 181.16 147.331L179.31 143.244C189.552 140.376 199.254 135.85 208.033 129.846L209.884 133.933Z" fill="#F9A825"/>
<path d="M172.094 125.156H170.597V126.653H172.094V125.156Z" fill="#00BF71"/>
<path d="M176.585 151.205H175.088V152.702H176.585V151.205Z" fill="#00BF71"/>
<path d="M152.634 125.156H151.137V126.653H152.634V125.156Z" fill="#00BF71"/>
<path d="M187.362 143.72H185.865V145.217H187.362V143.72Z" fill="#00BF71"/>
<path d="M188.26 135.037H186.764V136.534H188.26V135.037Z" fill="#00BF71"/>
<path d="M163.567 130.938L161.833 129.761L161.161 130.752L162.895 131.929L163.567 130.938Z" fill="#00BF71"/>
<path d="M181.231 134.231L179.497 133.055L178.824 134.046L180.558 135.222L181.231 134.231Z" fill="#00BF71"/>
<path d="M159.675 139.92L157.941 138.744L157.269 139.735L159.003 140.911L159.675 139.92Z" fill="#00BF71"/>
<path d="M170.654 139.833L171.83 138.099L170.839 137.426L169.663 139.161L170.654 139.833Z" fill="#00BF71"/>
<path d="M178.737 141.929L179.914 140.195L178.923 139.522L177.746 141.257L178.737 141.929Z" fill="#00BF71"/>
<path d="M200.295 134.743L201.471 133.008L200.48 132.336L199.304 134.07L200.295 134.743Z" fill="#00BF71"/>
<path d="M342 186.137H0V187H342V186.137Z" fill="#3F3D56"/>
</svg>
