<svg width="326" height="232" viewBox="0 0 326 232" fill="none" xmlns="http://www.w3.org/2000/svg">
<path d="M256.953 8.09621V46.7629C256.953 47.3924 256.192 47.7077 255.747 47.2626L227.966 19.4825C227.015 18.5307 227.09 16.9605 228.136 16.1134C235.442 10.1971 244.571 6.44346 254.549 5.82605C255.854 5.74527 256.953 6.78905 256.953 8.09621Z" fill="#F4F4F2"/>
<path d="M254.58 6.32509L254.58 6.32509C255.594 6.26231 256.453 7.07441 256.453 8.09621V46.7629C256.453 46.9469 256.231 47.0391 256.101 46.909C256.101 46.909 256.101 46.909 256.101 46.909L228.32 19.129C227.576 18.385 227.637 17.1605 228.451 16.502C235.679 10.6489 244.709 6.93587 254.58 6.32509Z" stroke="black" stroke-opacity="0.5"/>
<path d="M286.915 19.4271L259.205 47.1371C258.759 47.5822 257.998 47.267 257.998 46.6374V8.09658C257.998 6.78701 259.102 5.74524 260.409 5.82633C265.782 6.15947 270.908 7.40201 275.637 9.40188C279.653 11.101 283.382 13.3461 286.73 16.045C287.784 16.8949 287.873 18.4696 286.915 19.4271Z" fill="#F4F4F2"/>
<path d="M260.378 6.32537L260.378 6.32537C265.693 6.65496 270.765 7.88415 275.442 9.86237C279.415 11.5432 283.104 13.7642 286.416 16.4343C287.24 17.0986 287.308 18.3274 286.562 19.0736L258.851 46.7835C258.721 46.9136 258.498 46.8215 258.498 46.6374V8.09658C258.498 7.07402 259.36 6.26221 260.378 6.32537Z" stroke="black" stroke-opacity="0.5"/>
<path d="M301.508 49.0619H260.464C259.834 49.0619 259.519 48.3008 259.964 47.8557L287.829 19.9909C288.731 19.0885 290.191 19.1044 291.077 20.0233C297.876 27.0795 302.473 36.2719 303.763 46.4948C303.935 47.8563 302.88 49.0619 301.508 49.0619Z" fill="#F4F4F2"/>
<path d="M301.508 48.5619H260.464C260.279 48.5619 260.187 48.3394 260.317 48.2093L259.964 47.8557L260.317 48.2093L288.182 20.3444C288.886 19.6405 290.025 19.6521 290.717 20.3702L291.077 20.0233L290.717 20.3702C297.444 27.3513 301.991 36.445 303.267 46.5574L303.731 46.4988L303.267 46.5574C303.402 47.6228 302.577 48.5619 301.508 48.5619Z" stroke="black" stroke-opacity="0.5"/>
<path d="M254.363 49.0619H213.443C212.071 49.0619 211.016 47.8565 211.187 46.4952C212.473 36.3043 217.045 27.1371 223.81 20.0896C224.695 19.1673 226.157 19.1504 227.061 20.0543L254.862 47.8557C255.307 48.3009 254.992 49.0619 254.363 49.0619Z" fill="#F4F4F2"/>
<path d="M211.684 46.5578L211.188 46.4953L211.684 46.5578C212.955 36.477 217.478 27.4083 224.17 20.4358C224.862 19.7151 226.002 19.7026 226.707 20.4079L254.509 48.2092C254.509 48.2092 254.509 48.2092 254.509 48.2092C254.639 48.3394 254.547 48.5619 254.363 48.5619H213.443C212.374 48.5619 211.549 47.6229 211.684 46.5578Z" stroke="black" stroke-opacity="0.5"/>
<path d="M256.953 52.2834V193.775C256.953 195.172 255.822 196.303 254.426 196.303H213.347C211.951 196.303 210.819 195.172 210.819 193.775V52.3924V52.3695C210.819 51.1197 211.832 50.1067 213.082 50.1067H254.777C255.979 50.1067 256.953 51.0812 256.953 52.2834Z" fill="#F4F4F2"/>
<path d="M256.453 52.2834V193.775C256.453 194.895 255.545 195.803 254.426 195.803H213.347C212.227 195.803 211.319 194.895 211.319 193.775V52.3924L211.319 52.3696C211.319 52.3696 211.319 52.3695 211.319 52.3695C211.319 52.3695 211.319 52.3695 211.319 52.3695C211.319 51.3958 212.108 50.6067 213.082 50.6067H254.777C255.703 50.6067 256.453 51.3573 256.453 52.2834Z" stroke="black" stroke-opacity="0.5"/>
<path d="M304.132 52.3925V193.776C304.132 195.172 303 196.303 301.604 196.303H260.526C259.13 196.303 257.998 195.172 257.998 193.776V52.2834C257.998 51.0813 258.973 50.1068 260.175 50.1068H301.869C303.119 50.1068 304.132 51.1198 304.132 52.3696V52.3925Z" fill="#F4F4F2"/>
<path d="M303.632 52.3925V193.776C303.632 194.895 302.724 195.803 301.604 195.803H260.526C259.406 195.803 258.498 194.895 258.498 193.776V52.2834C258.498 51.3575 259.249 50.6068 260.175 50.6068H301.869C302.842 50.6068 303.632 51.3959 303.632 52.3696C303.632 52.3696 303.632 52.3697 303.632 52.3697V52.3925Z" stroke="black" stroke-opacity="0.5"/>
<path d="M120.632 230.481L129.902 176.037C130.59 171.995 133.35 169.117 136.538 169.117H167.798C170.987 169.117 173.746 171.995 174.435 176.037L183.704 230.481" stroke="black" stroke-opacity="0.5" stroke-miterlimit="10" stroke-linecap="round"/>
<path d="M136.723 169.072C133.408 168.75 130.473 166.709 129.031 163.657L122.651 150.149C121.117 146.902 123.486 143.164 127.077 143.164H127.463C129.558 143.164 131.181 141.328 130.923 139.248L129.14 124.226C128.636 119.98 131.953 116.246 136.23 116.246H168.839C173.116 116.246 176.433 119.98 175.929 124.226L174.146 139.248C173.889 141.328 175.511 143.164 177.607 143.164H177.992C181.584 143.164 183.952 146.902 182.419 150.149L176.038 163.657C174.596 166.709 171.661 168.75 168.347 169.072H136.723Z" fill="white" stroke="black" stroke-opacity="0.5" stroke-miterlimit="10" stroke-linecap="round"/>
<path d="M172.245 99.3316C173.244 100.074 174.639 100.585 176.581 100.614L178.751 113.41C179.308 116.686 177.335 119.862 174.153 120.816L172.502 121.311L170.545 133.136L190.335 141.075L189.431 166.019H151.865C132.425 166.019 137.205 140.773 148.044 135.42L148.848 98.6902L172.245 99.3316Z" fill="#FF3008"/>
<path d="M178.259 113.494L178.259 113.494C178.772 116.521 176.949 119.455 174.009 120.337L174.009 120.337L172.358 120.832L172.059 120.921L172.009 121.229L170.051 133.054L169.986 133.45L170.359 133.6L189.822 141.408L188.949 165.519H151.865C147.12 165.519 143.924 163.983 141.921 161.664C139.908 159.333 139.041 156.143 139.1 152.735C139.158 149.33 140.142 145.75 141.776 142.695C143.412 139.636 145.677 137.147 148.266 135.868L148.537 135.734L148.544 135.431L149.337 99.2038L172.078 99.8272C173.083 100.534 174.413 101.012 176.157 101.1L178.259 113.494Z" stroke="black" stroke-opacity="0.5"/>
<path d="M188.109 140.774C195.949 140.774 198.684 150.923 187.796 176.827C176.057 204.76 168.68 220.214 175.24 230.481H169.184C165.839 230.481 163.153 227.724 163.239 224.381C163.379 218.978 163.557 211.508 163.557 208.587C163.557 203.787 164.349 140.774 188.109 140.774Z" fill="#F4F4F2"/>
<path d="M188.109 141.274C189.954 141.274 191.446 141.866 192.523 143.094C193.611 144.335 194.328 146.289 194.476 149.112C194.773 154.771 192.772 163.697 187.335 176.633C186.492 178.642 185.67 180.586 184.874 182.47C180.141 193.668 176.317 202.714 174.176 210.14C171.793 218.4 171.447 224.793 174.358 229.981H169.184C166.121 229.981 163.66 227.456 163.739 224.394C163.879 218.994 164.057 211.516 164.057 208.587C164.057 206.198 164.255 189.282 167.414 172.976C168.994 164.818 171.308 156.854 174.683 150.942C178.06 145.027 182.431 141.274 188.109 141.274Z" stroke="black" stroke-opacity="0.5"/>
<mask id="path-19-inside-1" fill="white">
<path d="M175.24 230.722H169.184C169.051 230.722 168.943 230.614 168.943 230.481C168.943 230.348 169.051 230.24 169.184 230.24H175.24C175.373 230.24 175.481 230.348 175.481 230.481C175.481 230.614 175.373 230.722 175.24 230.722Z"/>
</mask>
<path d="M175.24 230.722H169.184C169.051 230.722 168.943 230.614 168.943 230.481C168.943 230.348 169.051 230.24 169.184 230.24H175.24C175.373 230.24 175.481 230.348 175.481 230.481C175.481 230.614 175.373 230.722 175.24 230.722Z" fill="#FF3008"/>
<path d="M175.24 229.722H169.184V231.722H175.24V229.722ZM169.184 229.722C169.603 229.722 169.943 230.062 169.943 230.481H167.943C167.943 231.166 168.499 231.722 169.184 231.722V229.722ZM169.943 230.481C169.943 230.9 169.603 231.24 169.184 231.24V229.24C168.499 229.24 167.943 229.795 167.943 230.481H169.943ZM169.184 231.24H175.24V229.24H169.184V231.24ZM175.24 231.24C174.821 231.24 174.481 230.9 174.481 230.481H176.481C176.481 229.795 175.925 229.24 175.24 229.24V231.24ZM174.481 230.481C174.481 230.062 174.821 229.722 175.24 229.722V231.722C175.925 231.722 176.481 231.166 176.481 230.481H174.481Z" fill="black" fill-opacity="0.5" mask="url(#path-19-inside-1)"/>
<path d="M173.003 217.95C172.955 218.339 172.915 218.723 172.883 219.101H163.371C163.379 218.765 163.386 218.429 163.394 218.094C163.395 218.046 163.397 217.998 163.397 217.95H173.003V217.95Z" fill="#FF3008"/>
<path d="M172.427 218.601H163.883C163.884 218.551 163.885 218.5 163.886 218.45H172.443C172.437 218.5 172.432 218.551 172.427 218.601Z" stroke="black" stroke-opacity="0.5"/>
<path d="M164.965 228.726C166.988 227.202 171.663 226.64 173.649 227.14C173.457 226.567 173.3 225.979 173.174 225.376C169.624 224.473 165.566 225.276 163.385 225.863C163.385 225.863 163.718 227.765 164.965 228.726Z" fill="#FF3008"/>
<path d="M164.172 226.748C164.094 226.554 164.034 226.374 163.989 226.223C166.154 225.682 169.643 225.089 172.752 225.789C172.808 226.033 172.869 226.275 172.935 226.514C171.892 226.406 170.553 226.469 169.241 226.68C167.71 226.926 166.116 227.389 165.004 228.092C164.626 227.706 164.356 227.206 164.172 226.748Z" stroke="black" stroke-opacity="0.5"/>
<path d="M154.147 217.95C154.147 217.95 139 140.774 167.267 140.774C189.275 140.774 162.964 202.854 163.434 218.107C163.705 226.909 169.08 230.481 169.08 230.481H160.257C159.105 230.481 158.083 229.744 157.718 228.651L154.147 217.95Z" fill="#F4F4F2"/>
<path d="M154.631 217.822L154.627 217.799L154.595 217.635C154.568 217.49 154.527 217.274 154.475 216.993C154.371 216.429 154.223 215.602 154.044 214.55C153.686 212.444 153.205 209.435 152.717 205.824C151.74 198.6 150.733 188.974 150.606 179.355C150.48 169.724 151.238 160.149 153.763 152.999C155.024 149.427 156.715 146.494 158.926 144.458C161.125 142.432 163.86 141.274 167.267 141.274C169.884 141.274 171.729 142.188 173.012 143.784C174.314 145.404 175.076 147.779 175.389 150.764C176.016 156.736 174.822 164.904 172.938 173.615C171.518 180.184 169.715 187.021 168.031 193.41C167.484 195.483 166.95 197.51 166.445 199.464C165.416 203.448 164.51 207.135 163.876 210.307C163.243 213.47 162.873 216.156 162.934 218.123C163.073 222.629 164.52 225.815 165.947 227.879C166.582 228.797 167.211 229.491 167.716 229.981H160.257C159.32 229.981 158.489 229.382 158.192 228.493L154.631 217.822Z" stroke="black" stroke-opacity="0.5"/>
<path d="M169.321 230.481C169.321 230.614 169.213 230.722 169.08 230.722H160.257C159 230.722 157.887 229.921 157.489 228.727L155.497 222.76V229.836C155.497 230.192 155.209 230.481 154.853 230.481H151.365C151.039 230.481 150.766 230.237 150.725 229.914C149.695 221.77 154.146 217.95 154.146 217.95H163.451L163.531 219.102H154.785L157.911 228.468C158.664 227.782 161.551 225.395 165.172 225.474C165.606 226.369 166.078 227.213 166.541 227.853C166.472 227.857 166.403 227.862 166.334 227.871C164.107 228.116 162.279 229.238 161.053 230.24H169.08C169.213 230.24 169.321 230.348 169.321 230.481Z" fill="#FF3008"/>
<path d="M155.454 222.686L154.997 222.76V229.836C154.997 229.917 154.932 229.981 154.853 229.981H151.365C151.294 229.981 151.231 229.928 151.221 229.851L155.454 222.686ZM155.454 222.686L154.311 219.26L154.119 218.685C154.04 218.771 153.95 218.874 153.852 218.992C153.472 219.452 152.97 220.153 152.497 221.101C151.553 222.993 150.719 225.885 151.221 229.851L155.454 222.686ZM154.312 218.482C154.323 218.471 154.334 218.46 154.344 218.45H162.984L162.995 218.602H154.785H154.196C154.239 218.556 154.277 218.516 154.312 218.482ZM160.257 230.222C159.355 230.222 158.543 229.724 158.127 228.948L158.248 228.838C158.963 228.186 161.584 226.032 164.861 225.973C165.122 226.498 165.399 227.004 165.68 227.461C163.594 227.837 161.894 228.908 160.737 229.853L160.285 230.222H160.257Z" stroke="black" stroke-opacity="0.5"/>
<path d="M175.806 148.703C177.713 166.878 162.84 206.667 163.193 218.107C163.464 226.909 169.16 230.561 169.16 230.561" stroke="black" stroke-opacity="0.5" stroke-miterlimit="10" stroke-linecap="round"/>
<path d="M185.228 135.467H161.708L177.541 98.187H201.061L185.228 135.467Z" fill="#FF3008"/>
<path d="M200.305 98.687L184.897 134.967H162.463L177.872 98.687H200.305Z" stroke="black" stroke-opacity="0.5"/>
<path d="M208.777 135.467H185.256L201.089 98.1867H224.61L208.777 135.467Z" fill="#F6ACC1"/>
<path d="M223.854 98.6867L208.446 134.967H186.012L201.42 98.6867H223.854Z" stroke="black" stroke-opacity="0.5"/>
<path d="M201.141 98.1064L185.228 135.467H161.708L177.621 98.1064" stroke="black" stroke-opacity="0.5" stroke-miterlimit="10" stroke-linecap="round"/>
<path d="M202.022 109.547H213.862" stroke="black" stroke-opacity="0.5" stroke-miterlimit="10" stroke-linecap="round"/>
<path d="M201.218 112.038H213.058" stroke="black" stroke-opacity="0.5" stroke-miterlimit="10" stroke-linecap="round"/>
<path d="M149.281 98.6898C146.782 98.6898 144.582 100.337 143.879 102.735L137.563 124.291C135.926 129.876 140.114 135.467 145.934 135.467C148.53 135.467 150.991 134.31 152.648 132.311L164.8 117.655C166.216 115.948 168.318 114.96 170.535 114.96H174.323C175.987 114.96 177.528 114.084 178.38 112.655L181.446 107.511C181.605 107.245 181.413 106.907 181.102 106.907H174.587C174.076 106.907 173.731 106.384 173.933 105.914L174.234 105.215H168.05C165.8 105.215 163.611 105.942 161.808 107.287L153.808 113.253L154.863 105.035C155.296 101.67 152.674 98.6898 149.281 98.6898Z" fill="#F4F4F2"/>
<path d="M173.475 105.715L173.474 105.717L173.474 105.717C173.13 106.516 173.716 107.407 174.587 107.407H180.926L177.951 112.399L178.38 112.655L177.951 112.399C177.189 113.677 175.811 114.46 174.323 114.46H170.535C168.169 114.46 165.926 115.514 164.415 117.336L152.264 131.992C150.701 133.877 148.381 134.967 145.934 134.967C140.447 134.967 136.5 129.696 138.043 124.432L137.563 124.291L138.043 124.432L144.359 102.876C144.359 102.876 144.359 102.876 144.359 102.876C144.999 100.691 147.004 99.1898 149.281 99.1898C152.372 99.1898 154.761 101.905 154.367 104.972L153.312 113.19L153.162 114.359L154.107 113.654L162.107 107.688C163.823 106.407 165.908 105.715 168.05 105.715H173.475ZM181.017 107.255L181.016 107.256L181.017 107.255Z" stroke="black" stroke-opacity="0.5"/>
<path d="M172.304 112.951H176.091C176.849 112.951 177.581 112.77 178.234 112.437" stroke="black" stroke-opacity="0.5" stroke-miterlimit="10" stroke-linecap="round"/>
<path d="M173.107 111.022H177.217C177.974 111.022 178.706 110.841 179.359 110.508" stroke="black" stroke-opacity="0.5" stroke-miterlimit="10" stroke-linecap="round"/>
<path d="M173.831 109.093H178.422C179.18 109.093 179.911 108.912 180.565 108.579" stroke="black" stroke-opacity="0.5" stroke-miterlimit="10" stroke-linecap="round"/>
<path d="M155.118 112.276L146.875 117.574" stroke="black" stroke-opacity="0.5" stroke-miterlimit="10" stroke-linecap="round"/>
<path d="M150.504 98.8235C150.111 98.7359 149.702 98.6901 149.281 98.6901C146.782 98.6901 144.582 100.338 143.88 102.736L139.988 116.015C135.65 114.897 131.223 112.725 130.604 108.507C129.107 98.2963 140.314 98.8557 144.207 97.5754C148.101 96.2959 146.68 92.7716 149.673 89.8421C153.197 86.3917 157.996 88.5232 160.688 87.414C163.408 86.2945 163.804 82.6842 166.771 81.9729C168.97 81.4457 170.654 82.4905 171.702 83.4992C172.148 83.2548 172.664 83.115 173.214 83.115C174.904 83.115 176.274 84.4347 176.274 86.063C176.274 87.6278 175.009 88.909 173.41 89.0054C173.513 95.4994 179.982 97.0063 176.582 100.613C169.822 100.588 167.227 92.9846 166.839 91.0307C166.382 94.2327 165.034 98.4755 161.164 99.8089C157.648 101.021 154.128 100.193 151.757 99.2616L150.504 98.8235Z" fill="#FF3008"/>
<path d="M150.641 98.3419L150.669 98.3515L151.922 98.7896L151.931 98.7927L151.94 98.7962C154.262 99.7087 157.648 100.492 161.001 99.3362L161.001 99.3362C162.786 98.7211 164.005 97.4332 164.841 95.8832C165.681 94.3272 166.12 92.53 166.344 90.9601L167.33 90.9333C167.513 91.8555 168.235 94.1747 169.727 96.2535C171.179 98.2761 173.317 100.018 176.364 100.11C177.013 99.365 177.132 98.7912 177.043 98.2765C176.936 97.6607 176.521 97.023 175.907 96.1881C175.829 96.0826 175.749 95.9749 175.668 95.8648C174.494 94.2851 172.961 92.2199 172.91 89.0134L172.902 88.5351L173.379 88.5063C174.732 88.4247 175.774 87.3463 175.774 86.063C175.774 84.7282 174.646 83.615 173.214 83.615C172.75 83.615 172.316 83.7329 171.943 83.9377L171.62 84.1142L171.356 83.8594C170.368 82.9084 168.85 81.9885 166.887 82.4591L166.771 81.973L166.887 82.4592C165.603 82.7669 164.857 83.6939 164.043 84.8314C163.99 84.9067 163.935 84.983 163.88 85.0602C163.138 86.1051 162.294 87.2939 160.879 87.8764C160.114 88.1916 159.229 88.2659 158.333 88.2761C157.917 88.2808 157.485 88.2716 157.051 88.2622C157.014 88.2614 156.976 88.2606 156.938 88.2598C156.464 88.2497 155.985 88.241 155.502 88.25C153.572 88.2862 151.649 88.6069 150.022 90.1993C148.822 91.3749 148.391 92.633 147.96 93.8889C147.891 94.0916 147.821 94.2943 147.749 94.4965C147.492 95.2127 147.187 95.9328 146.668 96.5584C146.141 97.1941 145.417 97.7042 144.364 98.0503C143.572 98.3105 142.494 98.4982 141.33 98.7008C140.998 98.7585 140.66 98.8174 140.319 98.8796C138.749 99.1657 137.075 99.5274 135.577 100.154C134.081 100.779 132.798 101.653 131.971 102.941C131.149 104.222 130.738 105.973 131.099 108.434L150.641 98.3419ZM150.641 98.3419L150.613 98.3355C150.184 98.2399 149.738 98.1901 149.281 98.1901C146.56 98.1901 144.165 99.9841 143.4 102.595M150.641 98.3419L143.4 102.595M143.4 102.595L139.645 115.406C137.665 114.86 135.725 114.091 134.188 113.014C132.538 111.857 131.382 110.368 131.099 108.434L143.4 102.595Z" stroke="black" stroke-opacity="0.5"/>
<path d="M172.246 99.3315C172.251 99.4239 172.254 99.5164 172.254 99.6088C172.254 102.26 170.126 104.455 167.441 104.503L162.883 104.585C160.417 104.629 158.308 102.835 157.948 100.404C158.997 100.362 160.081 100.183 161.164 99.8089C164.548 98.6435 166.003 95.2535 166.621 92.2806C166.625 92.2645 166.628 92.2492 166.631 92.2331C166.736 91.7228 166.817 91.2245 166.878 90.7527L165.564 90.4987C164.651 90.3219 164.061 89.4306 164.255 88.5216L164.308 88.2733C164.497 87.39 165.359 86.8193 166.246 86.9905L167.216 87.2582L167.766 87.5129C168.365 87.7219 169.304 87.9132 170.43 87.6729C171.635 87.4157 172.74 86.5782 172.933 85.0777C173.291 85.5816 173.459 86.362 173.459 87.2437C173.459 89.822 172.742 93.5536 170.768 93.5536C170.435 93.5536 170.089 93.511 169.745 93.4395C169.718 94.2488 169.772 97.4958 172.246 99.3315Z" fill="#F4F4F2"/>
<path d="M162.874 104.085L162.874 104.085C160.845 104.121 159.085 102.772 158.556 100.866C159.464 100.787 160.395 100.603 161.327 100.282C164.975 99.0251 166.485 95.3936 167.111 92.3823L167.112 92.3786L167.116 92.3572L167.121 92.3342C167.121 92.3341 167.121 92.334 167.121 92.334C167.229 91.8101 167.311 91.2994 167.374 90.8169L167.434 90.3509L166.973 90.2618L165.659 90.0078C165.659 90.0078 165.659 90.0078 165.659 90.0078C165.02 89.8841 164.608 89.2611 164.744 88.6262L164.744 88.626L164.797 88.3778C164.797 88.3778 164.797 88.3777 164.797 88.3777C164.928 87.7665 165.52 87.3695 166.134 87.4782L167.043 87.7292L167.556 87.9666L167.578 87.977L167.601 87.9851C168.263 88.2158 169.297 88.426 170.535 88.1619L170.535 88.1619C171.462 87.9638 172.369 87.4483 172.921 86.5788C172.946 86.7846 172.959 87.0069 172.959 87.2437C172.959 88.4977 172.784 90.0171 172.38 91.2048C172.178 91.7999 171.93 92.2781 171.646 92.5991C171.37 92.9113 171.083 93.0536 170.768 93.0536C170.477 93.0536 170.166 93.0162 169.847 92.95L169.266 92.8291L169.246 93.4226C169.231 93.8559 169.238 94.9258 169.576 96.1352C169.898 97.2867 170.528 98.5936 171.754 99.5828C171.754 99.5915 171.754 99.6001 171.754 99.6088C171.754 101.989 169.843 103.96 167.432 104.003C167.432 104.003 167.432 104.003 167.432 104.003L162.874 104.085Z" stroke="black" stroke-opacity="0.5"/>
<path d="M169.666 93.566C166.964 93.0045 166.821 90.9496 166.821 90.9496" stroke="black" stroke-opacity="0.5" stroke-miterlimit="10" stroke-linecap="round"/>
<path d="M171.434 91.4199C170.383 91.4313 170.155 90.8278 170.155 90.8278L169.821 90.9734" stroke="black" stroke-opacity="0.5" stroke-miterlimit="10" stroke-linecap="round"/>
<path d="M173.444 87.9122C173.213 87.6609 172.689 87.6721 172.317 87.8595C171.58 88.2315 171.5 90.3826 171.5 90.3826" stroke="black" stroke-opacity="0.5" stroke-miterlimit="10" stroke-linecap="round"/>
<path d="M172.849 89.1862C172.862 88.9684 172.761 88.7856 172.625 88.7779C172.488 88.7702 172.368 88.9405 172.355 89.1583C172.343 89.3762 172.444 89.559 172.58 89.5667C172.716 89.5744 172.837 89.4041 172.849 89.1862Z" fill="#573240"/>
<path d="M172.596 89.2771C172.459 89.2694 172.389 89.1927 172.364 89.1588C172.392 89.128 172.471 89.0597 172.608 89.0675C172.745 89.0752 172.816 89.1519 172.841 89.1857C172.812 89.2166 172.733 89.2848 172.596 89.2771Z" stroke="black" stroke-opacity="0.5"/>
<path d="M170.002 89.03C170.014 88.8122 169.914 88.6293 169.777 88.6216C169.641 88.6139 169.52 88.7843 169.508 89.0021C169.496 89.2199 169.596 89.4027 169.733 89.4104C169.869 89.4181 169.99 89.2478 170.002 89.03Z" fill="#573240"/>
<path d="M169.749 89.1208C169.612 89.1131 169.541 89.0364 169.517 89.0026C169.545 88.9717 169.624 88.9035 169.761 88.9112C169.898 88.919 169.969 88.9957 169.993 89.0295C169.965 89.0603 169.886 89.1286 169.749 89.1208Z" stroke="black" stroke-opacity="0.5"/>
<path d="M166.815 88.9316C166.879 88.3665 166.477 87.855 165.912 87.7838" stroke="black" stroke-opacity="0.5" stroke-miterlimit="10" stroke-linecap="round"/>
<path d="M166.258 91.9622C166.713 91.9622 167.082 91.5935 167.082 91.1387C167.082 90.6838 166.713 90.3151 166.258 90.3151C165.803 90.3151 165.435 90.6838 165.435 91.1387C165.435 91.5935 165.803 91.9622 166.258 91.9622Z" fill="white"/>
<path d="M166.582 91.1387C166.582 91.3174 166.437 91.4622 166.258 91.4622C166.079 91.4622 165.935 91.3174 165.935 91.1387C165.935 90.96 166.079 90.8151 166.258 90.8151C166.437 90.8151 166.582 90.96 166.582 91.1387Z" stroke="black" stroke-opacity="0.5"/>
<path d="M164.851 135.488C159.881 135.488 155.58 139.943 154.507 146.201L140.057 230.483" stroke="black" stroke-opacity="0.5" stroke-miterlimit="10"/>
<path d="M226.181 135.424C231.159 135.424 235.467 139.886 236.541 146.153L251.013 230.562" stroke="black" stroke-opacity="0.5" stroke-miterlimit="10"/>
<path d="M136.074 135.488H254.996" stroke="black" stroke-opacity="0.5" stroke-miterlimit="10" stroke-linecap="round"/>
<path d="M171.369 1.89539V20.6943C171.369 27.3492 176.764 32.744 183.419 32.744C188.24 32.744 192.4 29.9128 194.326 25.8223" stroke="black" stroke-opacity="0.5" stroke-miterlimit="10" stroke-linecap="round"/>
<path d="M171.314 1V20.6944C171.314 27.3492 165.919 32.744 159.264 32.744C154.443 32.744 150.284 29.9128 148.357 25.8223" stroke="black" stroke-opacity="0.5" stroke-miterlimit="10" stroke-linecap="round"/>
<path d="M182.833 25.5564C182.241 30.7635 177.322 34.8269 171.342 34.8269C165.401 34.8269 160.509 30.8183 159.863 25.6619" stroke="black" stroke-opacity="0.5" stroke-miterlimit="10" stroke-linecap="round"/>
<path d="M148.112 24.4209C148.73 24.4209 149.231 23.9198 149.231 23.3016C149.231 22.6835 148.73 22.1824 148.112 22.1824C147.494 22.1824 146.993 22.6835 146.993 23.3016C146.993 23.9198 147.494 24.4209 148.112 24.4209Z" fill="#F4F4F2"/>
<path d="M148.731 23.3016C148.731 23.6436 148.454 23.9209 148.112 23.9209C147.77 23.9209 147.493 23.6436 147.493 23.3016C147.493 22.9596 147.77 22.6824 148.112 22.6824C148.454 22.6824 148.731 22.9596 148.731 23.3016Z" stroke="black" stroke-opacity="0.5"/>
<path d="M159.752 24.4209C160.371 24.4209 160.872 23.9198 160.872 23.3016C160.872 22.6835 160.371 22.1824 159.752 22.1824C159.134 22.1824 158.633 22.6835 158.633 23.3016C158.633 23.9198 159.134 24.4209 159.752 24.4209Z" fill="#F4F4F2"/>
<path d="M160.372 23.3016C160.372 23.6436 160.094 23.9209 159.752 23.9209C159.41 23.9209 159.133 23.6436 159.133 23.3016C159.133 22.9596 159.41 22.6824 159.752 22.6824C160.094 22.6824 160.372 22.9596 160.372 23.3016Z" stroke="black" stroke-opacity="0.5"/>
<path d="M182.944 24.4209C183.562 24.4209 184.063 23.9198 184.063 23.3016C184.063 22.6835 183.562 22.1824 182.944 22.1824C182.326 22.1824 181.824 22.6835 181.824 23.3016C181.824 23.9198 182.326 24.4209 182.944 24.4209Z" fill="#F4F4F2"/>
<path d="M183.563 23.3016C183.563 23.6436 183.286 23.9209 182.944 23.9209C182.602 23.9209 182.324 23.6436 182.324 23.3016C182.324 22.9596 182.602 22.6824 182.944 22.6824C183.286 22.6824 183.563 22.9596 183.563 23.3016Z" stroke="black" stroke-opacity="0.5"/>
<path d="M163.065 36.1508C163.683 36.1508 164.185 35.6497 164.185 35.0316C164.185 34.4135 163.683 33.9124 163.065 33.9124C162.447 33.9124 161.946 34.4135 161.946 35.0316C161.946 35.6497 162.447 36.1508 163.065 36.1508Z" fill="#F4F4F2"/>
<path d="M163.685 35.0316C163.685 35.3736 163.407 35.6508 163.065 35.6508C162.723 35.6508 162.446 35.3736 162.446 35.0316C162.446 34.6896 162.723 34.4124 163.065 34.4124C163.407 34.4124 163.685 34.6896 163.685 35.0316Z" stroke="black" stroke-opacity="0.5"/>
<path d="M179.72 36.1508C180.338 36.1508 180.839 35.6497 180.839 35.0316C180.839 34.4135 180.338 33.9124 179.72 33.9124C179.102 33.9124 178.601 34.4135 178.601 35.0316C178.601 35.6497 179.102 36.1508 179.72 36.1508Z" fill="#F4F4F2"/>
<path d="M180.339 35.0316C180.339 35.3736 180.062 35.6508 179.72 35.6508C179.378 35.6508 179.101 35.3736 179.101 35.0316C179.101 34.6896 179.378 34.4124 179.72 34.4124C180.062 34.4124 180.339 34.6896 180.339 35.0316Z" stroke="black" stroke-opacity="0.5"/>
<path d="M171.303 37.1358C171.921 37.1358 172.422 36.6347 172.422 36.0166C172.422 35.3984 171.921 34.8973 171.303 34.8973C170.685 34.8973 170.184 35.3984 170.184 36.0166C170.184 36.6347 170.685 37.1358 171.303 37.1358Z" stroke="black" stroke-opacity="0.5" stroke-miterlimit="10" stroke-linecap="round"/>
<path d="M171.303 6.51254C171.921 6.51254 172.422 6.01144 172.422 5.3933C172.422 4.77515 171.921 4.27405 171.303 4.27405C170.685 4.27405 170.184 4.77515 170.184 5.3933C170.184 6.01144 170.685 6.51254 171.303 6.51254Z" fill="white" stroke="black" stroke-opacity="0.5" stroke-miterlimit="10" stroke-linecap="round"/>
<path d="M194.674 24.4209C195.292 24.4209 195.793 23.9198 195.793 23.3016C195.793 22.6835 195.292 22.1824 194.674 22.1824C194.055 22.1824 193.554 22.6835 193.554 23.3016C193.554 23.9198 194.055 24.4209 194.674 24.4209Z" fill="#F4F4F2"/>
<path d="M195.293 23.3016C195.293 23.6436 195.016 23.9209 194.674 23.9209C194.332 23.9209 194.054 23.6436 194.054 23.3016C194.054 22.9596 194.332 22.6824 194.674 22.6824C195.016 22.6824 195.293 22.9596 195.293 23.3016Z" stroke="black" stroke-opacity="0.5"/>
<path d="M11.872 157.53C11.872 157.53 9.92307 151.142 2.25647 149.911C2.25647 149.911 2.89204 156.347 8.15595 157.53H11.872Z" fill="#FF3008"/>
<path d="M2.92551 150.824C2.90174 150.72 2.881 150.622 2.86296 150.532C6.15861 151.229 8.2592 152.933 9.55364 154.5C10.2468 155.34 10.7098 156.142 10.9986 156.732C11.0507 156.839 11.0972 156.938 11.1382 157.03H8.21246C5.82279 156.472 4.46133 154.734 3.68563 153.066C3.29584 152.228 3.06182 151.422 2.92551 150.824Z" stroke="black" stroke-opacity="0.5"/>
<path d="M23.1923 157.511C23.1923 157.511 26.6076 152.331 33.4888 151.893C33.4888 151.893 32.2502 155.617 29.0856 157.511H23.1923Z" fill="#FF3008"/>
<path d="M24.221 157.011C24.6319 156.539 25.2481 155.906 26.0694 155.259C27.588 154.063 29.8003 152.826 32.7149 152.467C32.5578 152.811 32.3369 153.251 32.0459 153.733C31.3821 154.832 30.3701 156.123 28.945 157.011H24.221Z" stroke="black" stroke-opacity="0.5"/>
<path d="M15.2836 157.511C15.2836 157.511 5.53516 150.095 5.75248 134.549C5.75248 134.549 20.4847 144.316 19.5311 157.511H15.2836Z" fill="#FF3008"/>
<path d="M15.4591 157.011C15.3938 156.958 15.3046 156.883 15.1946 156.786C14.9378 156.561 14.5678 156.22 14.1226 155.761C13.2322 154.844 12.0427 153.457 10.8587 151.592C8.59267 148.021 6.34411 142.692 6.25184 135.518C6.63232 135.8 7.13538 136.186 7.7222 136.668C9.07302 137.777 10.8632 139.391 12.6224 141.41C16.0666 145.364 19.3329 150.803 19.0594 157.011H15.4591Z" stroke="black" stroke-opacity="0.5"/>
<path d="M20.9278 157.511C20.9278 157.511 20.7602 147.142 32.1963 142.821C32.1963 142.821 31.1303 151.391 23.1923 157.511H20.9278Z" fill="#FF3008"/>
<path d="M21.447 157.011C21.4657 156.737 21.5024 156.359 21.5743 155.901C21.732 154.895 22.058 153.507 22.7307 151.989C24.0028 149.117 26.5211 145.759 31.5404 143.623C31.507 143.776 31.4673 143.947 31.4205 144.135C31.2021 145.012 30.829 146.248 30.2122 147.673C28.9926 150.49 26.8242 154.036 23.0209 157.011H21.447Z" stroke="black" stroke-opacity="0.5"/>
<path d="M17.7597 141.851C17.7597 141.851 17.4259 137.753 26.0843 135.715C26.0843 135.715 25.9617 143.156 17.7597 146.107V141.851Z" fill="#FF3008"/>
<path d="M18.2597 141.851V141.83L18.2584 141.815C18.2583 141.812 18.2581 141.807 18.258 141.799C18.2578 141.781 18.2582 141.749 18.2612 141.704C18.2671 141.615 18.2837 141.477 18.3279 141.3C18.4159 140.948 18.6152 140.436 19.0692 139.855C19.9264 138.757 21.7284 137.366 25.5212 136.37C25.5022 136.507 25.4776 136.661 25.4456 136.832C25.3121 137.542 25.0519 138.522 24.5459 139.59C23.5969 141.594 21.7776 143.924 18.2597 145.378V141.851Z" stroke="black" stroke-opacity="0.5"/>
<path d="M32.8235 150.67C33.4343 150.67 33.9295 150.175 33.9295 149.564C33.9295 148.954 33.4343 148.458 32.8235 148.458C32.2127 148.458 31.7175 148.954 31.7175 149.564C31.7175 150.175 32.2127 150.67 32.8235 150.67Z" stroke="black" stroke-opacity="0.5" stroke-miterlimit="10" stroke-linecap="round"/>
<path d="M4.42923 156.111C5.04005 156.111 5.53522 155.615 5.53522 155.005C5.53522 154.394 5.04005 153.899 4.42923 153.899C3.81841 153.899 3.32324 154.394 3.32324 155.005C3.32324 155.615 3.81841 156.111 4.42923 156.111Z" stroke="black" stroke-opacity="0.5" stroke-miterlimit="10" stroke-linecap="round"/>
<path d="M25.8948 138.735C26.3387 138.735 26.6985 138.376 26.6985 137.932C26.6985 137.488 26.3387 137.128 25.8948 137.128C25.451 137.128 25.0911 137.488 25.0911 137.932C25.0911 138.376 25.451 138.735 25.8948 138.735Z" stroke="black" stroke-opacity="0.5" stroke-miterlimit="10" stroke-linecap="round"/>
<path d="M17.7521 157.369V141.556" stroke="black" stroke-opacity="0.5" stroke-miterlimit="10"/>
<path d="M17.7597 142.011C19.9456 142.011 21.7176 140.239 21.7176 138.054C21.7176 135.868 19.9456 134.096 17.7597 134.096C15.5738 134.096 13.8018 135.868 13.8018 138.054C13.8018 140.239 15.5738 142.011 17.7597 142.011Z" fill="#F4F4F2"/>
<path d="M21.2176 138.054C21.2176 139.963 19.6694 141.511 17.7597 141.511C15.85 141.511 14.3018 139.963 14.3018 138.054C14.3018 136.144 15.85 134.596 17.7597 134.596C19.6694 134.596 21.2176 136.144 21.2176 138.054Z" stroke="black" stroke-opacity="0.5"/>
<path d="M18.3096 137.999C17.1441 138.284 15.9684 137.57 15.6837 136.405C15.4558 135.472 16.027 134.532 16.9593 134.304C17.7053 134.122 18.4576 134.578 18.6399 135.324C18.7857 135.921 18.4202 136.523 17.8235 136.669C17.3461 136.785 16.8646 136.493 16.7479 136.016C16.6546 135.634 16.8885 135.248 17.2704 135.155" stroke="black" stroke-opacity="0.5" stroke-miterlimit="10" stroke-linecap="round"/>
<path d="M17.7596 141.851C17.7596 141.851 17.7596 138.308 21.5351 138.308" stroke="black" stroke-opacity="0.5" stroke-miterlimit="10" stroke-linecap="round"/>
<path d="M25.1905 151.481C24.7956 151.919 24.1961 152.319 23.4852 152.579C22.3772 152.985 21.326 152.928 20.8145 152.498C20.256 152.13 19.9019 151.139 19.9755 149.961C20.0204 149.232 20.2202 148.565 20.5096 148.067" stroke="black" stroke-opacity="0.5" stroke-miterlimit="10" stroke-linecap="round"/>
<path d="M22.8712 149.164C22.8712 149.164 20.1357 151.186 20.1357 157.369" stroke="black" stroke-opacity="0.5" stroke-miterlimit="10" stroke-linecap="round"/>
<path d="M20.5595 148.327C21.0716 148.327 21.4868 147.912 21.4868 147.4C21.4868 146.888 21.0716 146.473 20.5595 146.473C20.0473 146.473 19.6321 146.888 19.6321 147.4C19.6321 147.912 20.0473 148.327 20.5595 148.327Z" fill="#FF3008"/>
<path d="M20.9868 147.4C20.9868 147.636 20.7955 147.827 20.5595 147.827C20.3235 147.827 20.1321 147.636 20.1321 147.4C20.1321 147.164 20.3235 146.973 20.5595 146.973C20.7955 146.973 20.9868 147.164 20.9868 147.4Z" stroke="black" stroke-opacity="0.5"/>
<path d="M23.2303 149.551C23.7629 149.551 24.1947 149.12 24.1947 148.587C24.1947 148.054 23.7629 147.622 23.2303 147.622C22.6976 147.622 22.2658 148.054 22.2658 148.587C22.2658 149.12 22.6976 149.551 23.2303 149.551Z" fill="#FF3008"/>
<path d="M23.6947 148.587C23.6947 148.843 23.4868 149.051 23.2303 149.051C22.9738 149.051 22.7658 148.843 22.7658 148.587C22.7658 148.33 22.9738 148.122 23.2303 148.122C23.4868 148.122 23.6947 148.33 23.6947 148.587Z" stroke="black" stroke-opacity="0.5"/>
<path d="M25.53 151.814C26.0422 151.814 26.4574 151.399 26.4574 150.887C26.4574 150.375 26.0422 149.959 25.53 149.959C25.0179 149.959 24.6027 150.375 24.6027 150.887C24.6027 151.399 25.0179 151.814 25.53 151.814Z" fill="#FF3008"/>
<path d="M25.9574 150.887C25.9574 151.123 25.766 151.314 25.53 151.314C25.294 151.314 25.1027 151.123 25.1027 150.887C25.1027 150.651 25.294 150.459 25.53 150.459C25.766 150.459 25.9574 150.651 25.9574 150.887Z" stroke="black" stroke-opacity="0.5"/>
<path d="M8.28044 141.612C8.83644 142.005 9.35958 142.795 9.65173 143.781C10.0293 145.055 9.92724 146.338 9.42387 146.887C9.05256 147.398 8.38612 147.814 7.58097 148.143C6.77942 148.47 5.98134 148.572 5.362 148.469" stroke="black" stroke-opacity="0.5" stroke-miterlimit="10" stroke-linecap="round"/>
<path d="M6.05048 144.8C6.05048 144.8 13.9121 147.293 14.4477 157.347" stroke="black" stroke-opacity="0.5" stroke-miterlimit="10" stroke-linecap="round"/>
<path d="M4.72247 149.201C5.27732 149.201 5.72711 148.751 5.72711 148.196C5.72711 147.641 5.27732 147.191 4.72247 147.191C4.16763 147.191 3.71783 147.641 3.71783 148.196C3.71783 148.751 4.16763 149.201 4.72247 149.201Z" fill="#FF3008"/>
<path d="M5.22711 148.196C5.22711 148.475 5.00118 148.701 4.72247 148.701C4.44377 148.701 4.21783 148.475 4.21783 148.196C4.21783 147.917 4.44377 147.691 4.72247 147.691C5.00118 147.691 5.22711 147.917 5.22711 148.196Z" stroke="black" stroke-opacity="0.5"/>
<path d="M5.16616 145.392C5.7432 145.392 6.21099 144.924 6.21099 144.347C6.21099 143.77 5.7432 143.303 5.16616 143.303C4.58912 143.303 4.12134 143.77 4.12134 144.347C4.12134 144.924 4.58912 145.392 5.16616 145.392Z" fill="#FF3008"/>
<path d="M5.71099 144.347C5.71099 144.648 5.46706 144.892 5.16616 144.892C4.86526 144.892 4.62134 144.648 4.62134 144.347C4.62134 144.047 4.86526 143.803 5.16616 143.803C5.46706 143.803 5.71099 144.047 5.71099 144.347Z" stroke="black" stroke-opacity="0.5"/>
<path d="M8.22919 142.616C8.78403 142.616 9.23383 142.167 9.23383 141.612C9.23383 141.057 8.78403 140.607 8.22919 140.607C7.67434 140.607 7.22455 141.057 7.22455 141.612C7.22455 142.167 7.67434 142.616 8.22919 142.616Z" fill="#FF3008"/>
<path d="M8.73383 141.612C8.73383 141.89 8.50789 142.116 8.22919 142.116C7.95048 142.116 7.72455 141.89 7.72455 141.612C7.72455 141.333 7.95048 141.107 8.22919 141.107C8.50789 141.107 8.73383 141.333 8.73383 141.612Z" stroke="black" stroke-opacity="0.5"/>
<path d="M13.1944 157.761C15.3803 157.761 17.1523 155.989 17.1523 153.803C17.1523 151.617 15.3803 149.845 13.1944 149.845C11.0085 149.845 9.23651 151.617 9.23651 153.803C9.23651 155.989 11.0085 157.761 13.1944 157.761Z" fill="#F4F4F2"/>
<path d="M16.6523 153.803C16.6523 155.713 15.1041 157.261 13.1944 157.261C11.2847 157.261 9.73651 155.713 9.73651 153.803C9.73651 151.893 11.2847 150.345 13.1944 150.345C15.1041 150.345 16.6523 151.893 16.6523 153.803Z" stroke="black" stroke-opacity="0.5"/>
<path d="M13.7443 153.749C12.5788 154.033 11.4031 153.32 11.1184 152.154C10.8905 151.222 11.4617 150.281 12.394 150.053C13.14 149.871 13.8923 150.328 14.0746 151.074C14.2204 151.671 13.8549 152.273 13.2582 152.418C12.7808 152.535 12.2993 152.243 12.1826 151.765C12.0893 151.383 12.3232 150.998 12.7051 150.905" stroke="black" stroke-opacity="0.5" stroke-miterlimit="10" stroke-linecap="round"/>
<path d="M27.7602 231.259H7.09153C6.56253 231.259 6.13367 230.831 6.13367 230.302V230.103C6.13367 229.574 6.56253 229.145 7.09153 229.145H27.7602C28.2892 229.145 28.7179 229.574 28.7179 230.103V230.302C28.7179 230.831 28.2892 231.259 27.7602 231.259Z" fill="#F4F4F2"/>
<path d="M27.7602 230.759H7.09153C6.83864 230.759 6.63367 230.554 6.63367 230.302V230.103C6.63367 229.85 6.83862 229.645 7.09153 229.645H27.7602C28.013 229.645 28.2179 229.85 28.2179 230.103V230.302C28.2179 230.554 28.013 230.759 27.7602 230.759Z" stroke="black" stroke-opacity="0.5"/>
<path d="M9.06879 227.896C9.06879 224.833 11.6457 222.351 14.8246 222.351H20.0272C23.2061 222.351 25.7831 224.833 25.7831 227.896H9.06879Z" fill="#F4F4F2"/>
<path d="M9.59438 227.396C9.8554 224.858 12.082 222.851 14.8246 222.851H20.0272C22.7698 222.851 24.9965 224.858 25.2575 227.396H9.59438Z" stroke="black" stroke-opacity="0.5"/>
<path d="M35.4946 190.915C35.4946 201.288 33.3841 210.648 29.9964 217.285C28.7544 219.718 25.7878 221.303 22.5016 221.303H12.9931C9.70698 221.303 6.74032 219.718 5.49826 217.285C2.11054 210.648 0 201.288 0 190.915C0 180.431 2.15579 170.981 5.60813 164.332C6.86248 161.917 9.81604 160.346 13.0867 160.346H22.4075C25.6782 160.346 28.6319 161.917 29.8862 164.333C33.3381 170.981 35.4946 180.431 35.4946 190.915Z" fill="#F4F4F2"/>
<path d="M34.9946 190.915C34.9946 201.228 32.8952 210.506 29.5511 217.057C28.414 219.285 25.6471 220.803 22.5016 220.803H12.9931C9.84768 220.803 7.0807 219.285 5.9436 217.057C2.59952 210.506 0.5 201.228 0.5 190.915C0.5 180.492 2.64463 171.124 6.05187 164.563C7.20088 162.35 9.95663 160.846 13.0867 160.846H22.4075C25.5377 160.846 28.2935 162.35 29.4424 164.563C32.8493 171.125 34.9946 180.492 34.9946 190.915Z" stroke="black" stroke-opacity="0.5"/>
<path d="M29.7733 159.483H5.07853C4.54953 159.483 4.12067 159.055 4.12067 158.526V158.327C4.12067 157.798 4.54953 157.369 5.07853 157.369H29.7733C30.3023 157.369 30.7311 157.798 30.7311 158.327V158.526C30.7311 159.055 30.3022 159.483 29.7733 159.483Z" fill="#F4F4F2"/>
<path d="M29.7733 158.983H5.07853C4.82561 158.983 4.62067 158.779 4.62067 158.526V158.327C4.62067 158.074 4.82561 157.869 5.07853 157.869H29.7733C30.0262 157.869 30.2311 158.074 30.2311 158.327V158.526C30.2311 158.526 30.2311 158.526 30.2311 158.526C30.2311 158.779 30.026 158.983 29.7733 158.983Z" stroke="black" stroke-opacity="0.5"/>
<path d="M277.253 140.289H274.761L262.856 112.256L229.696 104.386H262.326L277.253 140.289Z" fill="#573240"/>
<path d="M263.316 112.061L263.217 111.828L262.971 111.77L233.968 104.886H261.993L276.503 139.789H275.092L263.316 112.061Z" stroke="black" stroke-opacity="0.5"/>
<path d="M262.856 112.256L274.761 140.289H244.944L229.696 104.386L262.856 112.256Z" fill="#FF3008"/>
<path d="M230.542 105.101L262.494 112.684L274.006 139.789H245.274L230.542 105.101Z" stroke="black" stroke-opacity="0.5"/>
<path d="M175.467 191.547L208.572 141.489C211.058 137.729 215.266 135.468 219.774 135.469L275.426 135.486L285.921 169.71H265.698C261.12 169.71 256.553 169.238 252.071 168.302L226.465 162.956C226.465 162.956 218.432 182.694 193.578 203.613L175.467 191.547Z" fill="#573240"/>
<path d="M275.056 135.986L285.245 169.21H265.698C261.154 169.21 256.621 168.742 252.173 167.813L226.568 162.467L226.159 162.381L226.002 162.767L226.002 162.768L226.002 162.768L226.001 162.77L225.997 162.779L225.981 162.82C225.965 162.856 225.942 162.911 225.91 162.984C225.847 163.13 225.75 163.349 225.618 163.635C225.353 164.209 224.946 165.054 224.379 166.135C223.246 168.297 221.474 171.401 218.928 175.159C213.875 182.617 205.77 192.648 193.543 202.989L176.159 191.408L208.989 141.765C211.383 138.145 215.433 135.968 219.773 135.969L275.056 135.986Z" stroke="black" stroke-opacity="0.5"/>
<path d="M244.092 166.47L226.524 159.275C221.656 157.281 216.321 160.862 216.321 166.122V221.201H235.414C235.414 221.201 245.286 194.481 244.092 166.47Z" fill="#573240"/>
<path d="M216.821 220.701V166.122C216.821 161.217 221.795 157.879 226.335 159.738L243.605 166.812C244.154 180.645 242.009 194.15 239.713 204.229C238.557 209.305 237.364 213.508 236.46 216.441C236.008 217.907 235.629 219.056 235.363 219.837C235.235 220.211 235.134 220.501 235.063 220.701H216.821Z" stroke="black" stroke-opacity="0.5"/>
<path d="M244.654 166.953L226.283 159.275C221.415 157.281 216.08 160.862 216.08 166.122V181.015" stroke="black" stroke-opacity="0.5" stroke-miterlimit="10" stroke-linecap="round"/>
<path d="M324.099 114.893L316.022 147.997C312.798 161.181 299.374 169.572 285.802 169.572L280.101 151.295L251.962 146.534C253.478 146.534 254.705 142.717 254.705 137.841C254.705 132.971 253.477 129.022 251.962 129.015H270.389C274.418 129.015 278.179 126.995 280.403 123.635L289.132 110.45C293.296 104.159 300.339 100.375 307.885 100.375H312.704C320.311 100.375 325.905 107.504 324.099 114.893Z" fill="#FF3008"/>
<path d="M323.613 114.774L323.613 114.775L315.536 147.878C315.536 147.878 315.536 147.878 315.536 147.879C312.408 160.67 299.44 168.92 286.169 169.07L280.578 151.147L280.487 150.854L280.184 150.802L253.351 146.262C253.377 146.23 253.403 146.197 253.429 146.163C253.805 145.666 254.121 144.977 254.378 144.167C254.894 142.542 255.205 140.315 255.205 137.841C255.205 135.37 254.894 133.113 254.379 131.456C254.138 130.683 253.846 130.015 253.502 129.515H270.389C274.586 129.515 278.504 127.41 280.82 123.911L289.548 110.726L289.233 110.518L289.548 110.726C293.621 104.575 300.507 100.875 307.885 100.875H312.704C319.986 100.875 325.343 107.7 323.613 114.774Z" stroke="black" stroke-opacity="0.5"/>
<path d="M245.668 132.677C245.668 132.507 245.576 132.351 245.426 132.27L243.13 131.023C242.762 130.823 242.463 130.531 242.257 130.184C242.05 129.836 241.935 129.434 241.935 129.015H251.962C253.477 129.022 254.705 132.971 254.705 137.841C254.705 142.717 253.479 146.534 251.962 146.534L251.439 146.379L239.776 142.917C238.16 142.437 237.052 140.952 237.052 139.266V129.762C237.052 128.724 237.894 127.882 238.933 127.882H239.654L241.12 131.334L245.668 132.677Z" fill="#F4F4F2"/>
<path d="M246.168 133.346L245.527 133.156L240.979 131.813L240.752 131.746L240.66 131.529L239.323 128.382H238.933C238.17 128.382 237.552 129 237.552 129.762V139.266C237.552 140.731 238.515 142.021 239.919 142.437L239.776 142.917L239.919 142.437L251.581 145.9L251.581 145.9L252.02 146.03C252.17 146.007 252.38 145.893 252.632 145.56C252.912 145.189 253.187 144.619 253.426 143.865C253.903 142.363 254.205 140.243 254.205 137.841C254.205 135.442 253.902 133.29 253.424 131.753C253.185 130.981 252.909 130.393 252.627 130.008C252.337 129.613 252.106 129.516 251.961 129.515H242.507C242.549 129.66 242.61 129.799 242.686 129.928L242.686 129.928C242.847 130.199 243.081 130.427 243.369 130.584L246.168 133.346ZM246.168 133.346V132.677C246.168 132.324 245.976 131.999 245.665 131.831M246.168 133.346L245.665 131.831M245.665 131.831L243.369 130.584L245.665 131.831Z" stroke="black" stroke-opacity="0.5"/>
<path d="M243.751 141.356L239.535 140.104C237.918 139.624 236.81 138.14 236.81 136.453" stroke="black" stroke-opacity="0.5" stroke-miterlimit="10" stroke-linecap="round"/>
<path d="M244.075 135.343L239.535 133.996C238.409 133.661 237.53 132.84 237.1 131.802" stroke="black" stroke-opacity="0.5" stroke-miterlimit="10" stroke-linecap="round"/>
<path d="M243.882 138.421L239.534 137.13C238.409 136.796 237.529 135.974 237.099 134.936" stroke="black" stroke-opacity="0.5" stroke-miterlimit="10" stroke-linecap="round"/>
<path d="M257.116 147.498C258.703 147.451 259.981 143.44 259.981 138.327C259.981 133.187 258.686 129.02 257.087 129.013H252.162C253.543 129.508 254.616 133.271 254.616 137.839C254.616 141.816 253.805 145.094 252.685 146.193C252.423 146.449 252.144 146.586 251.856 146.586L257.116 147.498Z" fill="white"/>
<path d="M259.481 138.327C259.481 140.848 259.166 143.076 258.667 144.662C258.417 145.458 258.129 146.066 257.832 146.466C257.551 146.845 257.314 146.974 257.142 146.995L253.244 146.32C253.809 145.632 254.247 144.524 254.557 143.21C254.91 141.712 255.116 139.859 255.116 137.839C255.116 135.52 254.844 133.391 254.388 131.764C254.161 130.952 253.882 130.247 253.557 129.702C253.519 129.638 253.479 129.574 253.438 129.513H257.085C257.252 129.514 257.503 129.625 257.811 130.044C258.111 130.454 258.403 131.078 258.656 131.893C259.161 133.518 259.481 135.793 259.481 138.327ZM252.72 146.229L252.685 146.193C253.805 145.094 254.616 141.816 254.616 137.839C254.616 134.023 253.867 130.77 252.816 129.513L252.72 146.229Z" stroke="black" stroke-opacity="0.5"/>
<path d="M317.516 98.3668C310.858 97.4506 303.874 98.3154 303.429 98.3725V95.8994L312.673 90.1609L317.516 98.3668Z" fill="#F4F4F2"/>
<path d="M303.929 96.1776L312.503 90.8554L316.569 97.7452C311.116 97.1372 305.685 97.6203 303.929 97.8109V96.1776Z" stroke="black" stroke-opacity="0.5"/>
<path d="M303.406 98.3748C303.406 98.3748 310.435 97.4148 317.334 98.3748L320.779 103.487C320.779 103.487 317.886 100.455 312.234 100.375C306.583 100.295 303.242 100.85 303.242 100.85L303.406 98.3748Z" fill="white" stroke="black" stroke-opacity="0.5" stroke-miterlimit="10" stroke-linecap="round" stroke-linejoin="round"/>
<path d="M309.993 89.5654C309.411 89.499 308.893 89.9373 308.862 90.5225L308.686 93.8792C308.616 95.3979 307.432 96.6299 305.917 96.7605L301.64 97.1294C300.695 97.2109 299.942 96.3535 300.144 95.427L300.84 92.2392L301.613 92.1726C302.537 92.0928 303.453 92.3956 304.148 93.0101L305.035 93.7948C305.348 94.0721 305.762 94.2088 306.179 94.1728C306.935 94.1076 307.529 93.4972 307.574 92.7393L307.859 87.8807C307.911 86.9947 307.111 86.3027 306.24 86.4758C304.211 86.8792 301.106 87.1479 301.04 85.0396C300.94 81.9017 304.385 82.5828 305.411 82.9867C306.011 83.2228 310.592 85.2359 311.846 85.7878C312.107 85.9023 312.329 86.0884 312.485 86.3261C312.862 86.901 313.362 88.0934 312.743 89.8787L309.993 89.5654Z" fill="#573240"/>
<path d="M308.187 93.853L308.187 93.853L308.186 93.8561C308.128 95.1244 307.139 96.1533 305.874 96.2624L301.597 96.6312L301.597 96.6312C300.988 96.6838 300.502 96.131 300.632 95.5336C300.632 95.5336 300.632 95.5336 300.632 95.5336L301.25 92.7057L301.656 92.6707L301.656 92.6707C302.443 92.6028 303.224 92.8608 303.816 93.3846L303.816 93.3846L304.704 94.1693C304.704 94.1693 304.704 94.1693 304.704 94.1693C305.12 94.5374 305.668 94.7187 306.222 94.671L306.222 94.671C307.226 94.5844 308.014 93.7744 308.073 92.7687L308.359 87.9101L308.359 87.91C308.43 86.6946 307.332 85.749 306.143 85.9854C305.14 86.1848 303.925 86.3381 302.973 86.2044C302.499 86.1377 302.141 86.006 301.907 85.8193C301.693 85.6491 301.552 85.4098 301.539 85.0238L301.539 85.0238C301.517 84.3322 301.691 83.9208 301.912 83.6676C302.139 83.4088 302.473 83.2505 302.89 83.1774C303.744 83.0275 304.764 83.2693 305.228 83.452C305.816 83.6832 310.381 85.6895 311.645 86.2455C311.819 86.3218 311.965 86.445 312.067 86.6004C312.349 87.0303 312.758 87.9368 312.387 89.3349L310.05 89.0686C310.05 89.0686 310.05 89.0686 310.05 89.0686C309.181 88.9696 308.409 89.6233 308.363 90.4963C308.363 90.4963 308.363 90.4963 308.363 90.4963L308.187 93.853Z" stroke="black" stroke-opacity="0.5"/>
<path d="M311.096 92.9648L308.693 92.8919L308.909 89.8602C308.939 89.1837 309.507 88.6572 310.184 88.6786L311.225 88.7116C312.3 88.7458 313.151 89.6342 313.138 90.7102L313.135 91.0124C313.122 92.1191 312.202 92.9995 311.096 92.9648Z" fill="#F4F4F2"/>
<path d="M311.111 92.465L311.112 92.4651C311.938 92.491 312.625 91.8334 312.635 91.0065L312.635 91.0064L312.638 90.7043C312.638 90.7043 312.638 90.7043 312.638 90.7043C312.648 89.9005 312.012 89.2369 311.209 89.2114C311.209 89.2114 311.209 89.2114 311.209 89.2114M311.111 92.465L308.909 89.8602C308.939 89.1837 309.507 88.6572 310.184 88.6786L311.225 88.7116L311.209 89.2114M311.111 92.465L309.229 92.4079M311.111 92.465L309.229 92.4079M311.209 89.2114L310.168 89.1784C310.168 89.1784 310.168 89.1784 310.168 89.1784C309.765 89.1656 309.426 89.4793 309.408 89.8824L309.408 89.8956L309.408 89.8956L309.229 92.4079M311.209 89.2114L309.229 92.4079" stroke="black" stroke-opacity="0.5"/>
<path d="M309.852 90.9385C309.882 90.262 310.451 89.7355 311.127 89.7569" stroke="black" stroke-opacity="0.5" stroke-miterlimit="10" stroke-linecap="round"/>
<path d="M313.121 90.8589C313.108 91.9657 312.189 92.846 311.083 92.8113L308.76 92.7384" stroke="black" stroke-opacity="0.5" stroke-miterlimit="10" stroke-linecap="round"/>
<path d="M307.859 87.8809L307.574 92.7397C307.552 93.1181 307.392 93.4605 307.143 93.7161C306.895 93.9711 306.558 94.1401 306.179 94.1727C305.762 94.2087 305.348 94.072 305.035 93.7951L304.148 93.0105C303.453 92.3955 302.537 92.0933 301.613 92.1731L300.84 92.2397C299.615 92.3108 299.126 91.4884 299.126 91.4884C301.494 89.4032 302.359 86.5857 302.359 86.5857L302.36 86.5856C303.462 86.9065 305.039 86.7147 306.241 86.4759C307.111 86.3026 307.911 86.9951 307.859 87.8809Z" fill="#F4F4F2"/>
<path d="M306.136 93.6746L306.136 93.6746C306.391 93.6526 306.617 93.5394 306.785 93.3674C306.953 93.1947 307.06 92.9645 307.075 92.7104L306.136 93.6746ZM306.136 93.6746C305.855 93.6988 305.577 93.6067 305.366 93.4206L304.479 92.6361C304.479 92.636 304.479 92.636 304.479 92.6359C303.682 91.93 302.63 91.5834 301.57 91.6749L300.804 91.7409C300.345 91.7661 300.038 91.6351 299.844 91.5045C300.877 90.4968 301.599 89.3813 302.072 88.4895C302.338 87.9885 302.528 87.5543 302.652 87.2434C302.662 87.2183 302.671 87.194 302.68 87.1706C303.848 87.3713 305.281 87.1764 306.338 86.9663L306.338 86.9663C306.89 86.8565 307.393 87.2948 307.36 87.8516C307.36 87.8517 307.36 87.8517 307.36 87.8517L307.075 92.7103L306.136 93.6746Z" stroke="black" stroke-opacity="0.5"/>
<path d="M303.235 88.3992C303.235 88.3992 304.159 88.3024 304.902 88.7856" stroke="black" stroke-opacity="0.5" stroke-miterlimit="10" stroke-linecap="round"/>
<mask id="path-152-inside-2" fill="white">
<path d="M303.872 90.4203C304.043 90.4055 304.163 90.1636 304.138 89.8799C304.114 89.5962 303.955 89.3782 303.784 89.3929C303.612 89.4077 303.493 89.6497 303.518 89.9334C303.542 90.217 303.701 90.4351 303.872 90.4203Z"/>
</mask>
<path d="M303.872 90.4203C304.043 90.4055 304.163 90.1636 304.138 89.8799C304.114 89.5962 303.955 89.3782 303.784 89.3929C303.612 89.4077 303.493 89.6497 303.518 89.9334C303.542 90.217 303.701 90.4351 303.872 90.4203Z" fill="#573240"/>
<path d="M303.142 89.9658C303.141 89.9569 303.136 89.9008 303.181 89.8094C303.217 89.7378 303.388 89.4584 303.786 89.424L303.958 91.4166C304.528 91.3674 304.844 90.9596 304.976 90.6924C305.117 90.4054 305.16 90.0865 305.134 89.794L303.142 89.9658ZM303.786 89.424C304.185 89.3896 304.401 89.6357 304.448 89.7002C304.508 89.7826 304.513 89.8386 304.514 89.8475L302.521 90.0193C302.547 90.3118 302.643 90.6187 302.831 90.8773C303.007 91.1181 303.388 91.4657 303.958 91.4166L303.786 89.424ZM304.514 89.8475C304.515 89.8563 304.519 89.9124 304.474 90.0038C304.439 90.0754 304.268 90.3549 303.869 90.3892L303.698 88.3966C303.128 88.4458 302.811 88.8536 302.68 89.1208C302.539 89.4078 302.496 89.7267 302.521 90.0193L304.514 89.8475ZM303.869 90.3892C303.471 90.4236 303.254 90.1776 303.207 90.113C303.147 90.0307 303.143 89.9746 303.142 89.9658L305.134 89.794C305.109 89.5015 305.013 89.1945 304.824 88.9359C304.649 88.6952 304.268 88.3475 303.698 88.3966L303.869 90.3892Z" fill="black" fill-opacity="0.5" mask="url(#path-152-inside-2)"/>
<path d="M216.321 221.201V223.264C216.321 223.264 226.54 224.893 233.971 223.826V221.201H216.321Z" fill="#FF3008"/>
<path d="M216.821 221.701H233.471V223.389C229.902 223.846 225.736 223.709 222.398 223.446C220.666 223.31 219.164 223.141 218.096 223.006C217.562 222.938 217.137 222.879 216.846 222.837C216.837 222.835 216.829 222.834 216.821 222.833V221.701Z" stroke="black" stroke-opacity="0.5"/>
<mask id="path-156-inside-3" fill="white">
<path d="M218.129 221.201V223.514C217.987 223.495 217.853 223.478 217.727 223.461V221.201H218.129Z"/>
</mask>
<path d="M218.129 221.201V223.514C217.987 223.495 217.853 223.478 217.727 223.461V221.201H218.129Z" fill="#F6ACC1"/>
<path d="M218.129 221.201H219.129V220.201H218.129V221.201ZM218.129 223.514L217.999 224.505L219.129 224.653V223.514H218.129ZM217.727 223.461H216.727V224.337L217.594 224.453L217.727 223.461ZM217.727 221.201V220.201H216.727V221.201H217.727ZM217.129 221.201V223.514H219.129V221.201H217.129ZM218.258 222.522C218.109 222.503 217.985 222.487 217.86 222.47L217.594 224.453C217.721 224.47 217.865 224.488 217.999 224.505L218.258 222.522ZM218.727 223.461V221.201H216.727V223.461H218.727ZM217.727 222.201H218.129V220.201H217.727V222.201Z" fill="black" fill-opacity="0.5" mask="url(#path-156-inside-3)"/>
<mask id="path-158-inside-4" fill="white">
<path d="M219.917 221.201V223.72C219.78 223.705 219.646 223.691 219.515 223.677V221.201H219.917Z"/>
</mask>
<path d="M219.917 221.201V223.72C219.78 223.705 219.646 223.691 219.515 223.677V221.201H219.917Z" fill="#F6ACC1"/>
<path d="M219.917 221.201H220.917V220.201H219.917V221.201ZM219.917 223.72L219.807 224.714L220.917 224.838V223.72H219.917ZM219.515 223.677H218.515V224.578L219.411 224.671L219.515 223.677ZM219.515 221.201V220.201H218.515V221.201H219.515ZM218.917 221.201V223.72H220.917V221.201H218.917ZM220.027 222.726C219.888 222.711 219.753 222.696 219.619 222.682L219.411 224.671C219.54 224.685 219.671 224.699 219.807 224.714L220.027 222.726ZM220.515 223.677V221.201H218.515V223.677H220.515ZM219.515 222.201H219.917V220.201H219.515V222.201Z" fill="black" fill-opacity="0.5" mask="url(#path-158-inside-4)"/>
<mask id="path-160-inside-5" fill="white">
<path d="M221.705 221.201V223.891C221.569 223.879 221.436 223.867 221.303 223.855V221.201H221.705V221.201Z"/>
</mask>
<path d="M221.705 221.201V223.891C221.569 223.879 221.436 223.867 221.303 223.855V221.201H221.705V221.201Z" fill="#F6ACC1"/>
<path d="M221.705 223.891L221.623 224.887L222.705 224.977V223.891H221.705ZM221.303 223.855H220.303V224.768L221.213 224.851L221.303 223.855ZM221.303 221.201V220.201H220.303V221.201H221.303ZM220.705 221.201V223.891H222.705V221.201H220.705ZM221.788 222.894C221.656 222.883 221.527 222.871 221.394 222.859L221.213 224.851C221.345 224.863 221.483 224.876 221.623 224.887L221.788 222.894ZM222.303 223.855V221.201H220.303V223.855H222.303ZM221.303 222.201H221.705V220.201H221.303V222.201Z" fill="black" fill-opacity="0.5" mask="url(#path-160-inside-5)"/>
<mask id="path-162-inside-6" fill="white">
<path d="M223.494 221.201V224.026C223.359 224.018 223.224 224.008 223.092 223.999V221.201H223.494Z"/>
</mask>
<path d="M223.494 221.201V224.026C223.359 224.018 223.224 224.008 223.092 223.999V221.201H223.494Z" fill="#F6ACC1"/>
<path d="M223.494 221.201H224.494V220.201H223.494V221.201ZM223.494 224.026L223.434 225.024L224.494 225.087V224.026H223.494ZM223.092 223.999H222.092V224.935L223.025 224.997L223.092 223.999ZM223.092 221.201V220.201H222.092V221.201H223.092ZM222.494 221.201V224.026H224.494V221.201H222.494ZM223.553 223.027C223.423 223.02 223.298 223.011 223.158 223.001L223.025 224.997C223.151 225.005 223.295 225.016 223.434 225.024L223.553 223.027ZM224.092 223.999V221.201H222.092V223.999H224.092ZM223.092 222.201H223.494V220.201H223.092V222.201Z" fill="black" fill-opacity="0.5" mask="url(#path-162-inside-6)"/>
<mask id="path-164-inside-7" fill="white">
<path d="M225.282 221.201V224.124C225.147 224.118 225.013 224.112 224.88 224.105V221.201H225.282Z"/>
</mask>
<path d="M225.282 221.201V224.124C225.147 224.118 225.013 224.112 224.88 224.105V221.201H225.282Z" fill="#F6ACC1"/>
<path d="M225.282 221.201H226.282V220.201H225.282V221.201ZM225.282 224.124L225.24 225.123L226.282 225.166V224.124H225.282ZM224.88 224.105H223.88V225.058L224.832 225.104L224.88 224.105ZM224.88 221.201V220.201H223.88V221.201H224.88ZM224.282 221.201V224.124H226.282V221.201H224.282ZM225.323 223.125C225.192 223.119 225.062 223.113 224.928 223.106L224.832 225.104C224.965 225.11 225.101 225.117 225.24 225.123L225.323 223.125ZM225.88 224.105V221.201H223.88V224.105H225.88ZM224.88 222.201H225.282V220.201H224.88V222.201Z" fill="black" fill-opacity="0.5" mask="url(#path-164-inside-7)"/>
<mask id="path-166-inside-8" fill="white">
<path d="M227.07 221.201V224.178C226.936 224.176 226.802 224.174 226.668 224.17V221.201H227.07V221.201Z"/>
</mask>
<path d="M227.07 221.201V224.178C226.936 224.176 226.802 224.174 226.668 224.17V221.201H227.07V221.201Z" fill="#F6ACC1"/>
<path d="M227.07 224.178L227.052 225.178L228.07 225.197V224.178H227.07ZM226.668 224.17H225.668V225.147L226.644 225.17L226.668 224.17ZM226.668 221.201V220.201H225.668V221.201H226.668ZM226.07 221.201V224.178H228.07V221.201H226.07ZM227.088 223.179C226.953 223.176 226.822 223.174 226.692 223.171L226.644 225.17C226.781 225.173 226.918 225.176 227.052 225.178L227.088 223.179ZM227.668 224.17V221.201H225.668V224.17H227.668ZM226.668 222.201H227.07V220.201H226.668V222.201Z" fill="black" fill-opacity="0.5" mask="url(#path-166-inside-8)"/>
<mask id="path-168-inside-9" fill="white">
<path d="M228.858 221.201V224.184C228.724 224.186 228.59 224.186 228.456 224.187V221.201H228.858Z"/>
</mask>
<path d="M228.858 221.201V224.184C228.724 224.186 228.59 224.186 228.456 224.187V221.201H228.858Z" fill="#F6ACC1"/>
<path d="M228.858 221.201H229.858V220.201H228.858V221.201ZM228.858 224.184L228.87 225.184L229.858 225.172V224.184H228.858ZM228.456 224.187H227.456V225.193L228.463 225.187L228.456 224.187ZM228.456 221.201V220.201H227.456V221.201H228.456ZM227.858 221.201V224.184H229.858V221.201H227.858ZM228.846 223.184C228.716 223.186 228.584 223.186 228.45 223.187L228.463 225.187C228.595 225.186 228.733 225.186 228.87 225.184L228.846 223.184ZM229.456 224.187V221.201H227.456V224.187H229.456ZM228.456 222.201H228.858V220.201H228.456V222.201Z" fill="black" fill-opacity="0.5" mask="url(#path-168-inside-9)"/>
<mask id="path-170-inside-10" fill="white">
<path d="M230.647 221.201V224.13C230.513 224.137 230.379 224.143 230.245 224.148V221.201H230.647V221.201Z"/>
</mask>
<path d="M230.647 221.201V224.13C230.513 224.137 230.379 224.143 230.245 224.148V221.201H230.647V221.201Z" fill="#F6ACC1"/>
<path d="M230.647 224.13L230.701 225.129L231.647 225.077V224.13H230.647ZM230.245 224.148H229.245V225.184L230.281 225.147L230.245 224.148ZM230.245 221.201V220.201H229.245V221.201H230.245ZM229.647 221.201V224.13H231.647V221.201H229.647ZM230.592 223.132C230.467 223.138 230.339 223.144 230.209 223.148L230.281 225.147C230.419 225.142 230.559 225.136 230.701 225.129L230.592 223.132ZM231.245 224.148V221.201H229.245V224.148H231.245ZM230.245 222.201H230.647V220.201H230.245V222.201Z" fill="black" fill-opacity="0.5" mask="url(#path-170-inside-10)"/>
<mask id="path-172-inside-11" fill="white">
<path d="M232.435 221.201V224.006C232.301 224.018 232.168 224.03 232.033 224.041V221.201H232.435Z"/>
</mask>
<path d="M232.435 221.201V224.006C232.301 224.018 232.168 224.03 232.033 224.041V221.201H232.435Z" fill="#F6ACC1"/>
<path d="M232.435 221.201H233.435V220.201H232.435V221.201ZM232.435 224.006L232.531 225.001L233.435 224.914V224.006H232.435ZM232.033 224.041H231.033V225.128L232.116 225.037L232.033 224.041ZM232.033 221.201V220.201H231.033V221.201H232.033ZM231.435 221.201V224.006H233.435V221.201H231.435ZM232.339 223.01C232.213 223.022 232.085 223.033 231.95 223.044L232.116 225.037C232.251 225.026 232.39 225.015 232.531 225.001L232.339 223.01ZM233.033 224.041V221.201H231.033V224.041H233.033ZM232.033 222.201H232.435V220.201H232.033V222.201Z" fill="black" fill-opacity="0.5" mask="url(#path-172-inside-11)"/>
<path d="M175.467 191.547L174.172 193.217C174.172 193.217 181.993 200.374 188.766 203.613L190.343 201.478L175.467 191.547Z" fill="#FF3008"/>
<path d="M189.629 201.602L188.611 202.981C185.38 201.377 181.928 198.914 179.238 196.807C177.844 195.716 176.661 194.725 175.826 194.007C175.409 193.648 175.079 193.358 174.854 193.158C174.853 193.157 174.853 193.157 174.852 193.156L175.577 192.222L189.629 201.602Z" stroke="black" stroke-opacity="0.5"/>
<mask id="path-176-inside-12" fill="white">
<path d="M176.966 192.548L175.643 194.509C175.535 194.417 175.433 194.329 175.337 194.246L176.632 192.325L176.966 192.548Z"/>
</mask>
<path d="M176.966 192.548L175.643 194.509C175.535 194.417 175.433 194.329 175.337 194.246L176.632 192.325L176.966 192.548Z" fill="#F6ACC1"/>
<path d="M176.966 192.548L177.795 193.107L178.357 192.275L177.522 191.717L176.966 192.548ZM175.643 194.509L174.992 195.268L175.844 195.999L176.472 195.068L175.643 194.509ZM175.337 194.246L174.508 193.687L174.013 194.421L174.682 195.001L175.337 194.246ZM176.632 192.325L177.187 191.493L176.359 190.94L175.802 191.766L176.632 192.325ZM176.137 191.989L174.814 193.95L176.472 195.068L177.795 193.107L176.137 191.989ZM176.294 193.75C176.186 193.658 176.086 193.572 175.992 193.49L174.682 195.001C174.781 195.087 174.885 195.176 174.992 195.268L176.294 193.75ZM176.166 194.805L177.461 192.884L175.802 191.766L174.508 193.687L176.166 194.805ZM176.076 193.156L176.41 193.38L177.522 191.717L177.187 191.493L176.076 193.156Z" fill="black" fill-opacity="0.5" mask="url(#path-176-inside-12)"/>
<mask id="path-178-inside-13" fill="white">
<path d="M178.453 193.541L177.02 195.667C176.914 195.578 176.81 195.492 176.709 195.408L178.119 193.318L178.453 193.541Z"/>
</mask>
<path d="M178.453 193.541L177.02 195.667C176.914 195.578 176.81 195.492 176.709 195.408L178.119 193.318L178.453 193.541Z" fill="#F6ACC1"/>
<path d="M178.453 193.541L179.282 194.1L179.844 193.267L179.008 192.709L178.453 193.541ZM177.02 195.667L176.38 196.435L177.23 197.144L177.849 196.226L177.02 195.667ZM176.709 195.408L175.88 194.848L175.374 195.597L176.069 196.176L176.709 195.408ZM178.119 193.318L178.674 192.486L177.847 191.934L177.29 192.759L178.119 193.318ZM177.624 192.982L176.191 195.108L177.849 196.226L179.282 194.1L177.624 192.982ZM177.66 194.898C177.606 194.854 177.554 194.81 177.502 194.767C177.45 194.724 177.399 194.681 177.349 194.64L176.069 196.176C176.12 196.219 176.171 196.262 176.223 196.305C176.275 196.348 176.327 196.391 176.38 196.435L177.66 194.898ZM177.538 195.967L178.948 193.878L177.29 192.759L175.88 194.848L177.538 195.967ZM177.564 194.15L177.898 194.372L179.008 192.709L178.674 192.486L177.564 194.15Z" fill="black" fill-opacity="0.5" mask="url(#path-178-inside-13)"/>
<mask id="path-180-inside-14" fill="white">
<path d="M179.941 194.533L178.416 196.795C178.309 196.711 178.204 196.627 178.1 196.544L179.606 194.31L179.941 194.533Z"/>
</mask>
<path d="M179.941 194.533L178.416 196.795C178.309 196.711 178.204 196.627 178.1 196.544L179.606 194.31L179.941 194.533Z" fill="#F6ACC1"/>
<path d="M179.941 194.533L180.77 195.092L181.331 194.26L180.496 193.702L179.941 194.533ZM178.416 196.795L177.796 197.58L178.642 198.248L179.245 197.354L178.416 196.795ZM178.1 196.544L177.271 195.985L176.755 196.75L177.476 197.326L178.1 196.544ZM179.606 194.31L180.162 193.478L179.334 192.925L178.777 193.751L179.606 194.31ZM179.111 193.974L177.587 196.236L179.245 197.354L180.77 195.092L179.111 193.974ZM179.036 196.01C178.93 195.927 178.826 195.844 178.724 195.763L177.476 197.326C177.581 197.41 177.688 197.494 177.796 197.58L179.036 196.01ZM178.929 197.103L180.435 194.869L178.777 193.751L177.271 195.985L178.929 197.103ZM179.051 195.141L179.385 195.365L180.496 193.702L180.162 193.478L179.051 195.141Z" fill="black" fill-opacity="0.5" mask="url(#path-180-inside-14)"/>
<mask id="path-182-inside-15" fill="white">
<path d="M181.428 195.527L179.83 197.896C179.722 197.815 179.616 197.733 179.511 197.651L181.093 195.303L181.428 195.527Z"/>
</mask>
<path d="M181.428 195.527L179.83 197.896C179.722 197.815 179.616 197.733 179.511 197.651L181.093 195.303L181.428 195.527Z" fill="#F6ACC1"/>
<path d="M181.428 195.527L182.257 196.086L182.82 195.252L181.983 194.695L181.428 195.527ZM179.83 197.896L179.228 198.695L180.069 199.329L180.659 198.455L179.83 197.896ZM179.511 197.651L178.681 197.092L178.159 197.866L178.896 198.44L179.511 197.651ZM181.093 195.303L181.648 194.471L180.82 193.919L180.264 194.744L181.093 195.303ZM180.599 194.967L179.001 197.337L180.659 198.455L182.257 196.086L180.599 194.967ZM180.432 197.098C180.33 197.021 180.228 196.943 180.125 196.862L178.896 198.44C179.003 198.523 179.114 198.609 179.228 198.695L180.432 197.098ZM180.34 198.21L181.922 195.862L180.264 194.744L178.681 197.092L180.34 198.21ZM180.538 196.135L180.874 196.359L181.983 194.695L181.648 194.471L180.538 196.135Z" fill="black" fill-opacity="0.5" mask="url(#path-182-inside-15)"/>
<mask id="path-184-inside-16" fill="white">
<path d="M182.915 196.519L181.264 198.967C181.156 198.889 181.047 198.809 180.94 198.729L182.581 196.296L182.915 196.519Z"/>
</mask>
<path d="M182.915 196.519L181.264 198.967C181.156 198.889 181.047 198.809 180.94 198.729L182.581 196.296L182.915 196.519Z" fill="#F6ACC1"/>
<path d="M182.915 196.519L183.744 197.078L184.306 196.246L183.471 195.688L182.915 196.519ZM181.264 198.967L180.677 199.777L181.515 200.385L182.093 199.526L181.264 198.967ZM180.94 198.729L180.111 198.171L179.578 198.962L180.343 199.532L180.94 198.729ZM182.581 196.296L183.136 195.464L182.308 194.911L181.752 195.737L182.581 196.296ZM182.086 195.96L180.435 198.408L182.093 199.526L183.744 197.078L182.086 195.96ZM181.852 198.158C181.746 198.081 181.641 198.004 181.537 197.927L180.343 199.532C180.454 199.614 180.566 199.696 180.677 199.777L181.852 198.158ZM181.77 199.288L183.41 196.855L181.752 195.737L180.111 198.171L181.77 199.288ZM182.025 197.127L182.359 197.351L183.471 195.688L183.136 195.464L182.025 197.127Z" fill="black" fill-opacity="0.5" mask="url(#path-184-inside-16)"/>
<mask id="path-186-inside-17" fill="white">
<path d="M184.403 197.512L182.722 200.004C182.611 199.928 182.501 199.851 182.392 199.774L184.068 197.289L184.403 197.512Z"/>
</mask>
<path d="M184.403 197.512L182.722 200.004C182.611 199.928 182.501 199.851 182.392 199.774L184.068 197.289L184.403 197.512Z" fill="#F6ACC1"/>
<path d="M184.403 197.512L185.232 198.071L185.794 197.237L184.957 196.68L184.403 197.512ZM182.722 200.004L182.155 200.828L182.987 201.4L183.551 200.563L182.722 200.004ZM182.392 199.774L181.563 199.215L181.015 200.027L181.815 200.591L182.392 199.774ZM184.068 197.289L184.623 196.457L183.795 195.906L183.239 196.73L184.068 197.289ZM183.574 196.953L181.893 199.445L183.551 200.563L185.232 198.071L183.574 196.953ZM183.289 199.18C183.18 199.105 183.073 199.031 182.969 198.957L181.815 200.591C181.929 200.672 182.043 200.75 182.155 200.828L183.289 199.18ZM183.221 200.334L184.897 197.849L183.239 196.73L181.563 199.215L183.221 200.334ZM183.514 198.122L183.848 198.344L184.957 196.68L184.623 196.457L183.514 198.122Z" fill="black" fill-opacity="0.5" mask="url(#path-186-inside-17)"/>
<mask id="path-188-inside-18" fill="white">
<path d="M185.89 198.505L184.206 201.003C184.093 200.93 183.982 200.856 183.87 200.781L185.555 198.282L185.89 198.505Z"/>
</mask>
<path d="M185.89 198.505L184.206 201.003C184.093 200.93 183.982 200.856 183.87 200.781L185.555 198.282L185.89 198.505Z" fill="#F6ACC1"/>
<path d="M185.89 198.505L186.719 199.064L187.282 198.231L186.445 197.673L185.89 198.505ZM184.206 201.003L183.661 201.842L184.485 202.378L185.035 201.562L184.206 201.003ZM183.87 200.781L183.041 200.222L182.48 201.054L183.314 201.613L183.87 200.781ZM185.555 198.282L186.11 197.45L185.282 196.898L184.726 197.723L185.555 198.282ZM185.061 197.946L183.377 200.444L185.035 201.562L186.719 199.064L185.061 197.946ZM184.751 200.165C184.643 200.095 184.535 200.023 184.426 199.95L183.314 201.613C183.428 201.689 183.544 201.766 183.661 201.842L184.751 200.165ZM184.699 201.34L186.384 198.841L184.726 197.723L183.041 200.222L184.699 201.34ZM185.001 199.114L185.336 199.337L186.445 197.673L186.11 197.45L185.001 199.114Z" fill="black" fill-opacity="0.5" mask="url(#path-188-inside-18)"/>
<mask id="path-190-inside-19" fill="white">
<path d="M187.377 199.498L185.721 201.954C185.607 201.885 185.492 201.816 185.378 201.744L187.043 199.274L187.377 199.498Z"/>
</mask>
<path d="M187.377 199.498L185.721 201.954C185.607 201.885 185.492 201.816 185.378 201.744L187.043 199.274L187.377 199.498Z" fill="#F6ACC1"/>
<path d="M187.377 199.498L188.206 200.057L188.768 199.224L187.933 198.666L187.377 199.498ZM185.721 201.954L185.203 202.809L186.017 203.303L186.55 202.513L185.721 201.954ZM185.378 201.744L184.549 201.185L183.971 202.043L184.847 202.592L185.378 201.744ZM187.043 199.274L187.599 198.443L186.771 197.89L186.214 198.715L187.043 199.274ZM186.548 198.939L184.892 201.395L186.55 202.513L188.206 200.057L186.548 198.939ZM186.239 201.099C186.121 201.027 186.015 200.963 185.909 200.897L184.847 202.592C184.969 202.668 185.093 202.743 185.203 202.809L186.239 201.099ZM186.207 202.303L187.872 199.834L186.214 198.715L184.549 201.185L186.207 202.303ZM186.487 200.106L186.822 200.329L187.933 198.666L187.599 198.443L186.487 200.106Z" fill="black" fill-opacity="0.5" mask="url(#path-190-inside-19)"/>
<mask id="path-192-inside-20" fill="white">
<path d="M188.864 200.49L187.275 202.848C187.158 202.784 187.04 202.719 186.922 202.652L188.531 200.268L188.864 200.49Z"/>
</mask>
<path d="M188.864 200.49L187.275 202.848C187.158 202.784 187.04 202.719 186.922 202.652L188.531 200.268L188.864 200.49Z" fill="#F6ACC1"/>
<path d="M188.864 200.49L189.693 201.049L190.255 200.216L189.419 199.659L188.864 200.49ZM187.275 202.848L186.799 203.727L187.597 204.159L188.104 203.407L187.275 202.848ZM186.922 202.652L186.093 202.093L185.49 202.988L186.428 203.522L186.922 202.652ZM188.531 200.268L189.086 199.436L188.258 198.884L187.701 199.709L188.531 200.268ZM188.035 199.931L186.446 202.289L188.104 203.407L189.693 201.049L188.035 199.931ZM187.751 201.968C187.638 201.907 187.526 201.845 187.417 201.783L186.428 203.522C186.553 203.593 186.678 203.661 186.799 203.727L187.751 201.968ZM187.751 203.212L189.36 200.827L187.701 199.709L186.093 202.093L187.751 203.212ZM187.975 201.1L188.309 201.322L189.419 199.659L189.086 199.436L187.975 201.1Z" fill="black" fill-opacity="0.5" mask="url(#path-192-inside-20)"/>
<path d="M235.314 230.481H229.825C229.716 229.829 229.202 229.335 228.585 229.335C227.967 229.335 227.453 229.829 227.344 230.481H211.113C210.553 230.481 210.336 229.753 210.806 229.447C212.94 228.057 216.321 225.502 216.321 223.263C216.321 223.263 226.54 224.892 233.971 223.826C233.971 223.826 235.813 224.188 235.314 230.481Z" fill="#FF3008"/>
<path d="M234.849 229.981C235.028 227.175 234.704 225.727 234.374 225C234.203 224.623 234.034 224.447 233.938 224.37C233.923 224.359 233.91 224.349 233.898 224.341C230.158 224.858 225.771 224.714 222.32 224.443C220.569 224.305 219.051 224.134 217.971 223.997C217.466 223.933 217.057 223.876 216.763 223.834C216.667 224.319 216.458 224.791 216.187 225.238C215.807 225.862 215.287 226.467 214.714 227.03C213.567 228.156 212.157 229.164 211.079 229.866M234.849 229.981L210.806 229.447M234.849 229.981H230.2M234.849 229.981H230.2M211.079 229.866L210.806 229.447M211.079 229.866C211.079 229.866 211.079 229.866 211.079 229.866L210.806 229.447M211.079 229.866C211.066 229.874 211.06 229.881 211.057 229.885C211.054 229.888 211.053 229.892 211.051 229.895C211.049 229.903 211.047 229.918 211.052 229.936C211.058 229.955 211.067 229.966 211.074 229.971C211.077 229.974 211.08 229.976 211.085 229.977C211.089 229.979 211.097 229.981 211.113 229.981H226.969M210.806 229.447C210.336 229.753 210.553 230.481 211.113 230.481H227.344M226.969 229.981C226.915 230.114 226.875 230.254 226.851 230.398L227.344 230.481M226.969 229.981C227.232 229.328 227.834 228.835 228.585 228.835C229.335 228.835 229.936 229.328 230.2 229.981M226.969 229.981H227.344V230.481M227.344 230.481L230.2 229.981" stroke="black" stroke-opacity="0.5"/>
<path d="M235.314 230.481H229.825C229.716 229.829 229.202 229.335 228.585 229.335C227.967 229.335 227.453 229.829 227.344 230.481H210.55" stroke="black" stroke-opacity="0.5" stroke-miterlimit="10" stroke-linecap="round"/>
<path d="M217.658 226.427C217.658 226.427 213.365 226.321 213.338 224.747C213.312 223.174 216.672 224.561 214.112 227.066" stroke="black" stroke-opacity="0.5" stroke-miterlimit="10" stroke-linecap="round"/>
<path d="M186.187 209.894L181.622 206.846C181.893 206.243 181.74 205.547 181.227 205.204C180.713 204.861 180.011 204.987 179.558 205.468L166.159 196.52C165.64 196.173 165.882 195.362 166.507 195.359C169.024 195.346 172.967 195.023 174.172 193.218C174.172 193.218 181.994 200.374 188.766 203.613C188.766 203.613 190.096 204.937 186.187 209.894Z" fill="#FF3008"/>
<path d="M181.505 204.788L181.505 204.788C180.88 204.371 180.106 204.447 179.524 204.844L166.437 196.104L166.437 196.104C166.401 196.08 166.388 196.056 166.382 196.038C166.375 196.016 166.374 195.986 166.383 195.954C166.393 195.922 166.41 195.898 166.428 195.884C166.443 195.872 166.466 195.859 166.509 195.859H166.509C167.782 195.852 169.436 195.768 170.935 195.449C172.185 195.184 173.437 194.735 174.226 193.937C174.453 194.139 174.774 194.421 175.174 194.765C176.018 195.491 177.213 196.492 178.621 197.594C181.396 199.767 185.021 202.354 188.419 204.001C188.425 204.014 188.43 204.03 188.436 204.048C188.473 204.165 188.516 204.405 188.449 204.814C188.32 205.602 187.785 206.985 186.078 209.22L182.212 206.638C182.355 205.949 182.129 205.205 181.505 204.788Z" stroke="black" stroke-opacity="0.5"/>
<path d="M186.107 209.814L181.541 206.765C181.813 206.163 181.66 205.466 181.147 205.124C180.633 204.78 179.931 204.906 179.478 205.388L166.079 196.439" stroke="black" stroke-opacity="0.5" stroke-miterlimit="10" stroke-linecap="round"/>
<path d="M174.052 196.352C174.052 196.352 170.489 194.115 171.313 192.774C172.136 191.433 174.351 194.308 170.718 194.904" stroke="black" stroke-opacity="0.5" stroke-miterlimit="10" stroke-linecap="round"/>
<path d="M288.377 169.54C291.565 169.54 294.325 172.398 295.013 176.413L304.283 230.481" stroke="black" stroke-opacity="0.5" stroke-miterlimit="10" stroke-linecap="round"/>
<path d="M255.597 169.564H296.877C306.217 169.564 314.379 163.257 316.736 154.219L325 122.524H317.374C309.753 122.524 302.776 126.8 299.316 133.591L295.292 141.493C292.228 147.508 286.048 151.295 279.297 151.295H273.831C263.747 151.295 255.578 159.48 255.597 169.564Z" fill="white" stroke="black" stroke-opacity="0.5" stroke-miterlimit="10" stroke-linecap="round"/>
<path d="M253.99 230.481L263.26 176.413C263.948 172.398 266.708 169.54 269.896 169.54H301.317C304.505 169.54 307.265 172.398 307.953 176.413L317.223 230.481" stroke="black" stroke-opacity="0.5" stroke-miterlimit="10" stroke-linecap="round"/>
<path d="M297.121 188.707C298.324 186.187 300.777 184.461 303.606 184.461C306.369 184.461 308.772 186.106 310.004 188.53" stroke="black" stroke-opacity="0.5" stroke-miterlimit="10" stroke-linecap="round"/>
<path d="M57.2057 230.569H73.4371C73.9971 230.569 74.2132 229.84 73.7439 229.535C71.6098 228.145 69.1231 226.262 68.2981 223.715L51.382 223.672C51.382 223.672 49.5407 224.275 50.039 230.569H54.7247V229.813H57.2057V230.569V230.569Z" fill="#FF3008"/>
<path d="M51.4445 224.229C51.4704 224.205 51.4929 224.186 51.5112 224.172L67.9449 224.215C68.9316 226.769 71.4362 228.628 73.4711 229.954C73.4838 229.962 73.4898 229.969 73.4925 229.972C73.4953 229.976 73.497 229.979 73.4982 229.983C73.501 229.991 73.5026 230.006 73.4972 230.024C73.4917 230.042 73.4824 230.054 73.4757 230.059C73.4727 230.061 73.4694 230.063 73.4651 230.065C73.4609 230.066 73.4523 230.069 73.4371 230.069H57.7057V229.813V229.313H57.2057H54.7247H54.2247V229.813V230.069H50.5045C50.3258 227.259 50.6479 225.747 50.9839 224.956C51.1592 224.543 51.3363 224.331 51.4445 224.229Z" stroke="black" stroke-opacity="0.5"/>
<path d="M50.039 230.568H54.7246V229.815H57.2057V230.568H73.9996" stroke="black" stroke-opacity="0.5" stroke-miterlimit="10" stroke-linecap="round" stroke-linejoin="round"/>
<path d="M66.2181 226.151C66.6214 225.641 67.3749 225.298 68.2378 225.298C68.7546 225.298 69.2321 225.421 69.6186 225.629" stroke="black" stroke-opacity="0.5" stroke-miterlimit="10" stroke-linecap="round" stroke-linejoin="round"/>
<path d="M67.0219 227.436C67.4461 226.927 68.2388 226.583 69.1466 226.583C69.8241 226.583 70.4375 226.775 70.8814 227.083" stroke="black" stroke-opacity="0.5" stroke-miterlimit="10" stroke-linecap="round" stroke-linejoin="round"/>
<path d="M95.9446 230.568H112.176C112.736 230.568 112.952 229.84 112.483 229.534C110.349 228.144 107.862 226.262 107.037 223.715L89.3172 223.671C89.3172 223.671 87.4759 224.275 87.9742 230.568H93.4636V229.812H95.9446V230.568V230.568Z" fill="#FF3008"/>
<path d="M89.3797 224.228C89.4056 224.204 89.4281 224.186 89.4464 224.172L106.684 224.214C107.671 226.769 110.175 228.628 112.21 229.953C112.223 229.961 112.229 229.968 112.231 229.972C112.234 229.975 112.236 229.979 112.237 229.982C112.24 229.99 112.241 230.005 112.236 230.023C112.231 230.042 112.221 230.053 112.215 230.058C112.212 230.061 112.208 230.063 112.204 230.064C112.2 230.066 112.191 230.068 112.176 230.068H96.4446V229.812V229.312H95.9446H93.4636H92.9636V229.812V230.068H88.4397C88.261 227.259 88.583 225.747 88.9191 224.955C89.0944 224.542 89.2714 224.33 89.3797 224.228Z" stroke="black" stroke-opacity="0.5"/>
<path d="M87.9742 230.568H93.4635V229.815H95.9446V230.568H112.739" stroke="black" stroke-opacity="0.5" stroke-miterlimit="10" stroke-linecap="round" stroke-linejoin="round"/>
<path d="M104.957 226.151C105.36 225.641 106.114 225.298 106.977 225.298C107.493 225.298 107.971 225.421 108.357 225.629" stroke="black" stroke-opacity="0.5" stroke-miterlimit="10" stroke-linecap="round" stroke-linejoin="round"/>
<path d="M105.761 227.436C106.185 226.927 106.978 226.583 107.886 226.583C108.563 226.583 109.176 226.775 109.62 227.083" stroke="black" stroke-opacity="0.5" stroke-miterlimit="10" stroke-linecap="round" stroke-linejoin="round"/>
<path d="M107.048 153.574C107.048 153.574 103.913 211.802 107.037 223.715H89.3414C83.4864 206.702 75.8093 180.211 85.5736 156.26C85.5736 156.26 85.0343 149.995 84.36 141.881L81.4988 152.507C77.5132 169.072 68.2978 223.715 68.2978 223.715H51.2455C51.2455 223.715 42.3516 181.015 58.065 154.245C58.065 154.245 64.5919 111.387 64.6201 106.271H105.441C105.441 106.271 106.727 120.641 107.048 153.574Z" fill="#573240"/>
<path d="M67.9093 223.014L67.8753 223.215H51.656C51.651 223.19 51.6459 223.163 51.6405 223.135C51.5797 222.818 51.4924 222.349 51.3866 221.743C51.1751 220.529 50.8902 218.763 50.597 216.559C50.0106 212.152 49.3919 205.997 49.2627 199.01C49.0039 185.017 50.7104 167.762 58.4962 154.498L58.5448 154.415L58.5593 154.32L58.065 154.245C58.5593 154.32 58.5593 154.32 58.5594 154.32L58.5596 154.318L58.5605 154.312L58.564 154.289L58.578 154.197L58.6326 153.837C58.6805 153.522 58.7506 153.059 58.8399 152.468C59.0185 151.286 59.2736 149.592 59.5798 147.542C60.1922 143.444 61.0091 137.926 61.8269 132.248C62.6446 126.57 63.4635 120.73 64.0798 115.99C64.6285 111.769 65.0217 108.383 65.1041 106.771H104.98C104.986 106.837 104.992 106.911 104.998 106.992C105.034 107.447 105.085 108.135 105.148 109.064C105.273 110.923 105.444 113.745 105.624 117.596C105.986 125.296 106.387 137.111 106.548 153.563L106.546 153.59L106.54 153.715C106.534 153.826 106.525 153.99 106.514 154.205C106.492 154.635 106.46 155.266 106.42 156.075C106.34 157.691 106.23 160.013 106.107 162.837C105.862 168.484 105.568 176.138 105.371 184.165C105.175 192.191 105.075 200.595 105.221 207.74C105.357 214.402 105.705 220.024 106.403 223.215H89.6983C83.8579 206.187 76.4138 180.053 86.0366 156.449L86.0821 156.337L86.0718 156.217L85.5736 156.26L86.0718 156.217L86.0717 156.217L86.0717 156.216L86.0714 156.212L86.0702 156.199L86.0655 156.145L86.0473 155.932L85.977 155.112C85.9159 154.398 85.8274 153.361 85.7179 152.071C85.4988 149.491 85.1954 145.896 84.8583 141.839L83.8772 141.751L81.016 152.377L81.0158 152.377L81.0127 152.39C79.0156 160.69 75.7126 178.509 72.9115 194.235C71.5102 202.102 70.2336 209.451 69.3073 214.834C68.8441 217.525 68.4685 219.724 68.2087 221.251C68.0788 222.015 67.9778 222.61 67.9093 223.014Z" stroke="black" stroke-opacity="0.5"/>
<path d="M64.6203 106.191H107.048L111.162 147.104C111.499 150.453 108.87 153.361 105.503 153.361H81.9787C76.508 153.361 71.9367 149.196 71.4284 143.749L68.4921 112.28C68.3069 110.296 66.6413 108.778 64.6481 108.778H64.4015L64.6203 106.191Z" fill="#F4F4F2"/>
<path d="M110.664 147.154L110.664 147.154C110.972 150.209 108.574 152.861 105.503 152.861H81.9787C76.7662 152.861 72.4105 148.893 71.9263 143.703L68.9899 112.234C68.79 110.091 67.0627 108.431 64.9447 108.288L65.0798 106.691H106.596L110.664 147.154Z" stroke="black" stroke-opacity="0.5"/>
<path d="M107.308 108.762H64.4034L64.6212 106.19H107.049L107.308 108.762Z" fill="#FF3008"/>
<path d="M106.597 106.69L106.755 108.262H64.9476L65.0807 106.69H106.597Z" stroke="black" stroke-opacity="0.5"/>
<path d="M125.993 88.503L113.393 58.0287C111.98 54.6121 109.06 52.0451 105.49 51.0822L88.9154 46.6136L77.874 43.1199L75.9033 45.9465L54.0311 49.6814C50.1524 50.3428 46.8942 52.9669 45.4202 56.6142L34.5387 83.5369C29.8 95.2598 40.4725 107.364 52.697 104.131L63.9835 101.147L64.62 106.271H114.113C123.271 106.271 129.492 96.9661 125.993 88.503ZM57.2853 80.613L59.375 74.0844C59.5864 73.4238 60.5492 73.5138 60.6344 74.2026L61.4309 80.613H57.2853Z" fill="#FF3008"/>
<path d="M88.7645 47.0903L88.7748 47.0936L88.7852 47.0964L105.359 51.565C108.78 52.4874 111.578 54.9467 112.931 58.2197L125.531 88.6941C128.894 96.8279 122.915 105.771 114.113 105.771H65.0617L64.4797 101.085L64.4091 100.517L63.8557 100.664L52.5692 103.648L52.5691 103.648C40.7428 106.776 30.4179 95.0654 35.0023 83.7243L34.5752 83.5516L35.0023 83.7242L45.8837 56.8015L45.8837 56.8015C47.2928 53.315 50.4074 50.8065 54.1152 50.1742L54.1153 50.1742L75.9875 46.4394L76.1938 46.4042L76.3135 46.2325L78.0738 43.7075L88.7645 47.0903ZM56.8091 80.4606L56.6003 81.113H57.2853H61.4309H61.9968L61.9271 80.5513L61.1306 74.1412C60.9797 72.9207 59.2736 72.7606 58.8988 73.9321L56.8091 80.4606Z" stroke="black" stroke-opacity="0.5"/>
<path d="M72.6961 98.8425L63.9835 101.147" stroke="black" stroke-opacity="0.5" stroke-miterlimit="10" stroke-linecap="round"/>
<path d="M57.2851 80.774H74.8054" stroke="black" stroke-opacity="0.5" stroke-miterlimit="10" stroke-linecap="round"/>
<path d="M86.3247 52.1282C86.7886 52.1282 87.1647 51.7521 87.1647 51.2882C87.1647 50.8242 86.7886 50.4481 86.3247 50.4481C85.8607 50.4481 85.4846 50.8242 85.4846 51.2882C85.4846 51.7521 85.8607 52.1282 86.3247 52.1282Z" stroke="black" stroke-opacity="0.5" stroke-miterlimit="10" stroke-linecap="round"/>
<path d="M86.3247 60.0314C86.7886 60.0314 87.1647 59.6553 87.1647 59.1914C87.1647 58.7274 86.7886 58.3513 86.3247 58.3513C85.8607 58.3513 85.4846 58.7274 85.4846 59.1914C85.4846 59.6553 85.8607 60.0314 86.3247 60.0314Z" stroke="black" stroke-opacity="0.5" stroke-miterlimit="10" stroke-linecap="round"/>
<path d="M86.3247 67.9345C86.7886 67.9345 87.1647 67.5584 87.1647 67.0944C87.1647 66.6305 86.7886 66.2544 86.3247 66.2544C85.8607 66.2544 85.4846 66.6305 85.4846 67.0944C85.4846 67.5584 85.8607 67.9345 86.3247 67.9345Z" stroke="black" stroke-opacity="0.5" stroke-miterlimit="10" stroke-linecap="round"/>
<path d="M86.3247 75.8377C86.7886 75.8377 87.1647 75.4616 87.1647 74.9976C87.1647 74.5337 86.7886 74.1576 86.3247 74.1576C85.8607 74.1576 85.4846 74.5337 85.4846 74.9976C85.4846 75.4616 85.8607 75.8377 86.3247 75.8377Z" stroke="black" stroke-opacity="0.5" stroke-miterlimit="10" stroke-linecap="round"/>
<path d="M86.3247 83.2318C86.7886 83.2318 87.1647 82.8557 87.1647 82.3918C87.1647 81.9279 86.7886 81.5518 86.3247 81.5518C85.8607 81.5518 85.4846 81.9279 85.4846 82.3918C85.4846 82.8557 85.8607 83.2318 86.3247 83.2318Z" stroke="black" stroke-opacity="0.5" stroke-miterlimit="10" stroke-linecap="round"/>
<path d="M107.612 65.9998C107.612 65.9998 106.855 74.1065 105.361 83.5465" stroke="black" stroke-opacity="0.5" stroke-miterlimit="10" stroke-linecap="round"/>
<path d="M74.6241 97.4154C76.2198 97.4154 77.5133 93.6541 77.5133 89.0143C77.5133 84.3745 76.2198 80.6132 74.6241 80.6132C73.0284 80.6132 71.7348 84.3745 71.7348 89.0143C71.7348 93.6541 73.0284 97.4154 74.6241 97.4154Z" fill="#573240"/>
<path d="M77.0133 89.0143C77.0133 91.2941 76.6948 93.3369 76.1943 94.7922C75.9432 95.5223 75.6555 96.0773 75.3608 96.4398C75.0627 96.8063 74.8108 96.9154 74.6241 96.9154C74.4373 96.9154 74.1854 96.8063 73.8874 96.4398C73.5926 96.0773 73.305 95.5223 73.0539 94.7922C72.5534 93.3369 72.2348 91.2941 72.2348 89.0143C72.2348 86.7345 72.5534 84.6918 73.0539 83.2365C73.305 82.5064 73.5926 81.9514 73.8874 81.5889C74.1854 81.2223 74.4373 81.1132 74.6241 81.1132C74.8108 81.1132 75.0627 81.2223 75.3608 81.5889C75.6555 81.9514 75.9432 82.5064 76.1943 83.2365C76.6948 84.6918 77.0133 86.7345 77.0133 89.0143Z" stroke="black" stroke-opacity="0.5"/>
<path d="M89.4133 86.9604C89.4133 86.9604 84.8845 75.3836 83.0192 75.6183C81.1538 75.8529 86.8812 86.0668 86.8812 86.0668L89.4133 86.9604Z" fill="#FF3008"/>
<path d="M88.5358 86.1205L87.2262 85.6584C87.1876 85.5884 87.1374 85.4974 87.0774 85.3876C86.9254 85.1096 86.7101 84.7119 86.4575 84.2337C85.9519 83.2766 85.2986 82.0008 84.7042 80.72C84.1069 79.4329 83.5806 78.1651 83.3175 77.2162C83.1835 76.733 83.1328 76.3833 83.1482 76.1708C83.149 76.1604 83.1499 76.1507 83.1509 76.1419C83.1551 76.144 83.1596 76.1463 83.1642 76.1487C83.2432 76.1906 83.3492 76.2686 83.4809 76.3967C83.7443 76.653 84.0508 77.0504 84.3865 77.5648C85.0548 78.5887 85.7844 79.9897 86.4644 81.4164C87.1425 82.8392 87.7635 84.2712 88.2155 85.3486C88.3348 85.6331 88.4422 85.8926 88.5358 86.1205Z" stroke="black" stroke-opacity="0.5"/>
<path d="M89.4512 88.9862V95.8435H72.9414C72.2108 94.3188 71.735 91.8281 71.735 89.0143C71.735 86.0495 72.263 83.443 73.0611 81.9481H79.2111C79.8235 81.9481 80.4311 82.0831 81.0034 82.3468L87.3343 85.261C88.6081 85.8485 89.4512 87.3306 89.4512 88.9862Z" fill="#F6ACC1"/>
<path d="M80.7942 82.8009L80.7943 82.8009L87.1249 85.715C87.1249 85.7151 87.125 85.7151 87.125 85.7151C88.1855 86.2043 88.9512 87.4825 88.9512 88.9862V95.3435H73.2644C72.6481 93.8884 72.235 91.6113 72.235 89.0143C72.235 86.2658 72.6974 83.8812 73.3699 82.4481H79.2111C79.7493 82.4481 80.2857 82.5666 80.7942 82.8009Z" stroke="black" stroke-opacity="0.5"/>
<path d="M82.8927 86.0728L87.6711 88.2727C88.6331 88.7156 89.2694 89.8347 89.2694 91.084V94.1021" stroke="black" stroke-opacity="0.5" stroke-miterlimit="10" stroke-linecap="round"/>
<path d="M82.8927 88.9303L87.6711 91.1301C88.6331 91.5731 89.2694 92.6921 89.2694 93.9414V95.7429" stroke="black" stroke-opacity="0.5" stroke-miterlimit="10" stroke-linecap="round"/>
<path d="M83.1339 92.0647L87.9122 94.2645C88.5162 94.5426 88.9919 95.0872 89.2621 95.7633" stroke="black" stroke-opacity="0.5" stroke-miterlimit="10" stroke-linecap="round"/>
<path d="M103.603 106.271H82.2348L89.1105 84.6704C89.3235 84.0011 89.9451 83.5466 90.6475 83.5466H107.467C109.134 83.5466 110.32 85.1682 109.814 86.7569L103.603 106.271Z" fill="white"/>
<path d="M109.338 86.6052L103.237 105.771H82.9187L89.5869 84.8221C89.5869 84.8221 89.5869 84.8221 89.5869 84.822C89.7339 84.3602 90.1629 84.0466 90.6475 84.0466H107.467C108.796 84.0466 109.741 85.339 109.338 86.6052Z" stroke="black" stroke-opacity="0.5"/>
<path d="M92.3594 85.7926L85.8409 106.27H82.2242L89.0755 84.7473C89.3031 84.0323 89.9671 83.5468 90.7175 83.5468C91.8838 83.5468 92.7132 84.6812 92.3594 85.7926Z" fill="#FF3008"/>
<path d="M91.883 85.6409L92.3515 85.79L91.883 85.6409L85.4754 105.77H82.9081L89.5519 84.8989C89.5519 84.8989 89.5519 84.8989 89.5519 84.8989C89.7135 84.3914 90.1848 84.0468 90.7175 84.0468C91.5454 84.0468 92.1341 84.852 91.883 85.6409Z" stroke="black" stroke-opacity="0.5"/>
<path d="M82.2748 106.1L89.0754 84.9081C89.3031 84.1931 89.9671 83.7076 90.7174 83.7076H108.064" stroke="black" stroke-opacity="0.5" stroke-miterlimit="10" stroke-linecap="round"/>
<path d="M92.582 83.4605L92.586 83.4453C92.7703 82.7303 93.3084 82.2448 93.9163 82.2448C94.8613 82.2448 95.5333 83.3792 95.2467 84.4906L95.2428 84.5058C95.0584 85.2208 94.5203 85.7063 93.9124 85.7063" stroke="black" stroke-opacity="0.5" stroke-miterlimit="10" stroke-linecap="round"/>
<path d="M96.8417 83.4605L96.8457 83.4453C97.03 82.7303 97.5681 82.2448 98.1761 82.2448C99.1211 82.2448 99.793 83.3792 99.5064 84.4906L99.5025 84.5058C99.3181 85.2208 98.78 85.7063 98.1721 85.7063" stroke="black" stroke-opacity="0.5" stroke-miterlimit="10" stroke-linecap="round"/>
<path d="M101.101 83.4605L101.105 83.4453C101.29 82.7303 101.828 82.2448 102.436 82.2448C103.381 82.2448 104.053 83.3792 103.766 84.4906L103.762 84.5058C103.578 85.2208 103.04 85.7063 102.432 85.7063" stroke="black" stroke-opacity="0.5" stroke-miterlimit="10" stroke-linecap="round"/>
<path d="M105.361 83.4605L105.365 83.4453C105.549 82.7303 106.087 82.2448 106.695 82.2448C107.64 82.2448 108.312 83.3792 108.026 84.4906L108.022 84.5058C107.837 85.2208 107.299 85.7063 106.691 85.7063" stroke="black" stroke-opacity="0.5" stroke-miterlimit="10" stroke-linecap="round"/>
<path d="M108.604 90.5797H111.495C112.729 90.5797 113.887 91.1805 114.597 92.1902L115.013 92.7814C117.575 96.4212 117.344 101.334 114.452 104.717L114.297 104.898C113.553 105.769 112.464 106.271 111.318 106.271H100.401C97.1979 106.271 94.6727 103.543 94.9196 100.349L95.3013 95.4096C95.3663 94.5692 96.0672 93.9204 96.9101 93.9204H105.849C106.857 93.9204 107.749 93.2684 108.054 92.3083L108.604 90.5797Z" fill="#F6ACC1"/>
<path d="M114.072 104.392L114.442 104.709L114.072 104.392L113.917 104.573C113.917 104.573 113.917 104.573 113.917 104.573C113.268 105.333 112.318 105.771 111.318 105.771H100.401C97.4892 105.771 95.1936 103.291 95.4181 100.387L94.9196 100.349L95.4181 100.387L95.7999 95.4481L95.7999 95.4481C95.8447 94.8681 96.3284 94.4204 96.9101 94.4204H105.849C107.074 94.4204 108.159 93.6276 108.531 92.46L108.531 92.46L108.97 91.0797H111.495C112.567 91.0797 113.572 91.6013 114.189 92.478L114.605 93.0692C117.035 96.5221 116.815 101.183 114.072 104.392Z" stroke="black" stroke-opacity="0.5"/>
<path d="M103.682 103.377H99.7085C97.8132 103.377 96.1603 102.486 95.0993 101.129" stroke="black" stroke-opacity="0.5" stroke-miterlimit="10" stroke-linecap="round"/>
<path d="M103.843 100.805H99.8692C97.9739 100.805 96.321 99.9144 95.26 98.5568" stroke="black" stroke-opacity="0.5" stroke-miterlimit="10" stroke-linecap="round"/>
<path d="M104.084 97.8315H100.11C98.2151 97.8315 96.5621 96.9407 95.5012 95.5831" stroke="black" stroke-opacity="0.5" stroke-miterlimit="10" stroke-linecap="round"/>
<path d="M88.9154 39.5996V46.6136L77.915 43.1327L80.2225 39.5996H88.9154Z" fill="#F6ACC1"/>
<path d="M88.4154 40.0996V45.9309L78.6938 42.8547L80.4931 40.0996H88.4154Z" stroke="black" stroke-opacity="0.5"/>
<path d="M90.7077 35.0177V41.15C90.7077 42.3652 89.7224 43.3506 88.5071 43.3506H85.0689C83.9413 43.3506 83.0275 42.4368 83.0275 41.31V39.6624H80.5014C79.7989 39.6624 79.2299 39.0933 79.2299 38.3909V37.4433C79.2299 36.7409 79.7989 36.1718 80.5014 36.1718H81.5952C82.3861 36.1718 83.0275 36.8124 83.0275 37.604V35.2435C83.0275 34.3209 83.7757 33.5726 84.6984 33.5726H89.2626C90.0607 33.5726 90.7077 34.2196 90.7077 35.0177Z" fill="#F6ACC1"/>
<path d="M83.5275 39.6624V39.1624H83.0275H80.5014C80.0751 39.1624 79.7299 38.8172 79.7299 38.3909V37.4433C79.7299 37.017 80.0751 36.6718 80.5014 36.6718H81.5952C82.1101 36.6718 82.5275 37.0887 82.5275 37.604H83.0275H83.5275V35.2435C83.5275 34.597 84.0518 34.0726 84.6984 34.0726H89.2626C89.7846 34.0726 90.2077 34.4958 90.2077 35.0177V41.15C90.2077 42.0891 89.4462 42.8506 88.5071 42.8506H85.0689C84.2173 42.8506 83.5275 42.1605 83.5275 41.31V39.6624Z" stroke="black" stroke-opacity="0.5"/>
<path d="M91.9656 32.2191C91.9656 33.7253 90.6885 34.9461 89.1132 34.9461C88.6173 34.9461 88.1503 34.8247 87.7437 34.6118L85.818 33.7888C85.6508 33.7172 85.478 33.6634 85.3004 33.6272C85.1236 33.591 84.9427 33.5726 84.7611 33.5726C83.8039 33.5726 83.0275 34.3489 83.0275 35.307V37.5236H83.0251C82.9833 36.7697 82.3596 36.1718 81.5953 36.1718H81.4185V33.9849C81.4185 32.9328 82.272 32.0793 83.3241 32.0793H86.2648C86.3412 30.639 87.5869 29.4929 89.1132 29.4929C90.6885 29.4929 91.9656 30.7138 91.9656 32.2191Z" fill="#FF3008"/>
<path d="M87.9582 34.1597L87.9756 34.1688C88.312 34.345 88.6995 34.4461 89.1132 34.4461C90.4338 34.4461 91.4656 33.4282 91.4656 32.2191C91.4656 31.011 90.4338 29.9929 89.1132 29.9929C87.8345 29.9929 86.8255 30.9488 86.7641 32.1057L86.739 32.5793H86.2648H83.3241C82.5481 32.5793 81.9185 33.2089 81.9185 33.9849V35.6986C82.136 35.7352 82.3412 35.8082 82.5275 35.911V35.307C82.5275 34.073 83.5276 33.0726 84.7611 33.0726C84.9765 33.0726 85.1909 33.0945 85.4004 33.1373L87.9582 34.1597ZM87.9582 34.1597L87.9402 34.152M87.9582 34.1597L87.9402 34.152M87.9402 34.152L86.0147 33.3291M87.9402 34.152L86.0147 33.3291M86.0147 33.3291C86.0146 33.329 86.0145 33.329 86.0145 33.329M86.0147 33.3291L86.0145 33.329M86.0145 33.329C85.8162 33.2442 85.6111 33.1803 85.4006 33.1374L86.0145 33.329Z" stroke="black" stroke-opacity="0.5"/>
<path d="M90.8443 45.4209V47.8296C90.8443 48.2716 90.3766 48.557 89.9836 48.3544L86.6996 46.6618C86.6522 46.9222 86.4239 47.1191 86.1499 47.1191H85.7753C85.5029 47.1191 85.2746 46.923 85.2264 46.6642L81.9465 48.3544C81.5534 48.557 81.0857 48.2716 81.0857 47.8296V45.4209C81.0857 45.0206 81.4747 44.7369 81.8556 44.8583L85.2168 45.9304C85.224 45.6282 85.4715 45.3855 85.7753 45.3855H86.1499C86.4545 45.3855 86.702 45.629 86.7085 45.9312L90.0744 44.8583C90.4554 44.7369 90.8443 45.0206 90.8443 45.4209Z" fill="#573240"/>
<path d="M81.5857 45.4209C81.5857 45.3596 81.6449 45.3159 81.7039 45.3347L84.799 46.322L81.7174 47.91L81.7174 47.91C81.6573 47.9409 81.5857 47.8974 81.5857 47.8296V45.4209ZM85.718 46.5726L85.7034 46.4946L85.7166 45.9424C85.7174 45.9113 85.7434 45.8855 85.7753 45.8855H86.1499C86.1824 45.8855 86.2079 45.9116 86.2086 45.9419L86.2205 46.502L86.2077 46.5722C86.203 46.5983 86.179 46.6191 86.1499 46.6191H85.7753C85.7472 46.6191 85.7227 46.5981 85.718 46.5726ZM87.1306 46.3215L90.2262 45.3347C90.2851 45.3159 90.3443 45.3596 90.3443 45.4209V47.8296C90.3443 47.8974 90.2728 47.9409 90.2126 47.91C90.2126 47.91 90.2126 47.91 90.2126 47.91L87.1306 46.3215Z" stroke="black" stroke-opacity="0.5"/>
<path d="M82.1908 38.053C82.1908 37.4759 81.7231 37.0082 81.146 37.0082" stroke="black" stroke-opacity="0.5" stroke-miterlimit="10" stroke-linecap="round"/>
<path d="M88.3007 40.8536C87.677 41.093 87.0038 40.8503 86.797 40.3116L86.4071 40.6288" stroke="black" stroke-opacity="0.5" stroke-miterlimit="10" stroke-linecap="round"/>
<mask id="path-265-inside-21" fill="white">
<path d="M86.6889 36.3988H85.0705C84.8906 36.3988 84.7448 36.253 84.7448 36.0732V36.0041C84.7448 35.8242 84.8906 35.6785 85.0705 35.6785H86.6889C86.8688 35.6785 87.0146 35.8243 87.0146 36.0041V36.0732C87.0146 36.253 86.8688 36.3988 86.6889 36.3988Z"/>
</mask>
<path d="M86.6889 36.3988H85.0705C84.8906 36.3988 84.7448 36.253 84.7448 36.0732V36.0041C84.7448 35.8242 84.8906 35.6785 85.0705 35.6785H86.6889C86.8688 35.6785 87.0146 35.8243 87.0146 36.0041V36.0732C87.0146 36.253 86.8688 36.3988 86.6889 36.3988Z" fill="#FF3008"/>
<path d="M86.6889 35.3988H85.0705V37.3988H86.6889V35.3988ZM85.0705 35.3988C85.4427 35.3988 85.7448 35.7005 85.7448 36.0732H83.7448C83.7448 36.8054 84.3385 37.3988 85.0705 37.3988V35.3988ZM85.7448 36.0732V36.0041H83.7448V36.0732H85.7448ZM85.7448 36.0041C85.7448 36.3768 85.4426 36.6785 85.0705 36.6785V34.6785C84.3386 34.6785 83.7448 35.2716 83.7448 36.0041H85.7448ZM85.0705 36.6785H86.6889V34.6785H85.0705V36.6785ZM86.6889 36.6785C86.3166 36.6785 86.0146 36.3767 86.0146 36.0041H88.0146C88.0146 35.2719 87.421 34.6785 86.6889 34.6785V36.6785ZM86.0146 36.0041V36.0732H88.0146V36.0041H86.0146ZM86.0146 36.0732C86.0146 35.7006 86.3166 35.3988 86.6889 35.3988V37.3988C87.421 37.3988 88.0146 36.8054 88.0146 36.0732H86.0146Z" fill="black" fill-opacity="0.5" mask="url(#path-265-inside-21)"/>
<path d="M89.0402 36.0388V39.0539C89.0402 39.3454 88.8037 39.5819 88.5122 39.5819H87.9532" stroke="black" stroke-opacity="0.5" stroke-miterlimit="10" stroke-linecap="round"/>
<path d="M85.9505 38.0543C86.1281 38.0543 86.272 37.8487 86.272 37.5951C86.272 37.3415 86.1281 37.1359 85.9505 37.1359C85.773 37.1359 85.629 37.3415 85.629 37.5951C85.629 37.8487 85.773 38.0543 85.9505 38.0543Z" fill="#573240"/>
<path d="M85.9505 37.6359C85.8858 37.6359 85.8395 37.6153 85.8097 37.5951C85.8395 37.5749 85.8858 37.5543 85.9505 37.5543C86.0152 37.5543 86.0615 37.5749 86.0913 37.5951C86.0615 37.6153 86.0152 37.6359 85.9505 37.6359Z" stroke="black" stroke-opacity="0.5"/>
<path d="M89.969 37.9969C90.1243 37.9969 90.2503 37.817 90.2503 37.5951C90.2503 37.3732 90.1243 37.1932 89.969 37.1932C89.8136 37.1932 89.6877 37.3732 89.6877 37.5951C89.6877 37.817 89.8136 37.9969 89.969 37.9969Z" fill="#573240"/>
<path d="M89.7583 37.5977C89.7576 37.5968 89.7571 37.5959 89.7565 37.5951C89.7571 37.5943 89.7576 37.5934 89.7583 37.5925C89.7719 37.573 89.8387 37.4969 89.969 37.4969C90.0992 37.4969 90.166 37.573 90.1797 37.5925C90.1803 37.5934 90.1809 37.5943 90.1814 37.5951C90.1809 37.5959 90.1803 37.5968 90.1797 37.5977C90.166 37.6172 90.0992 37.6932 89.969 37.6932C89.8387 37.6932 89.7719 37.6172 89.7583 37.5977Z" stroke="black" stroke-opacity="0.5"/>
<mask id="path-272-inside-22" fill="white">
<path d="M90.7879 36.3988H89.1694C88.9895 36.3988 88.8438 36.253 88.8438 36.0732V36.0041C88.8438 35.8242 88.9895 35.6785 89.1694 35.6785H90.7879C90.9677 35.6785 91.1135 35.8243 91.1135 36.0041V36.0732C91.1135 36.253 90.9677 36.3988 90.7879 36.3988Z"/>
</mask>
<path d="M90.7879 36.3988H89.1694C88.9895 36.3988 88.8438 36.253 88.8438 36.0732V36.0041C88.8438 35.8242 88.9895 35.6785 89.1694 35.6785H90.7879C90.9677 35.6785 91.1135 35.8243 91.1135 36.0041V36.0732C91.1135 36.253 90.9677 36.3988 90.7879 36.3988Z" fill="#FF3008"/>
<path d="M90.7879 35.3988H89.1694V37.3988H90.7879V35.3988ZM89.1694 35.3988C89.5417 35.3988 89.8438 35.7005 89.8438 36.0732H87.8438C87.8438 36.8054 88.4374 37.3988 89.1694 37.3988V35.3988ZM89.8438 36.0732V36.0041H87.8438V36.0732H89.8438ZM89.8438 36.0041C89.8438 36.3768 89.5415 36.6785 89.1694 36.6785V34.6785C88.4376 34.6785 87.8438 35.2716 87.8438 36.0041H89.8438ZM89.1694 36.6785H90.7879V34.6785H89.1694V36.6785ZM90.7879 36.6785C90.4156 36.6785 90.1135 36.3767 90.1135 36.0041H92.1135C92.1135 35.2719 91.5199 34.6785 90.7879 34.6785V36.6785ZM90.1135 36.0041V36.0732H92.1135V36.0041H90.1135ZM90.1135 36.0732C90.1135 35.7006 90.4156 35.3988 90.7879 35.3988V37.3988C91.5199 37.3988 92.1135 36.8054 92.1135 36.0732H90.1135Z" fill="black" fill-opacity="0.5" mask="url(#path-272-inside-22)"/>
<path d="M88.8287 43.5115H85.1489C84.0217 43.5115 83.1078 42.5977 83.1078 41.4705" stroke="black" stroke-opacity="0.5" stroke-miterlimit="10" stroke-linecap="round"/>
</svg>
